0
SECTION
2
HEADER
9
$INSUNITS
70
4
9
$ACADVER
1
AC1014
9
$HANDSEED
5
FFFF
0
ENDSEC
0
SECTION
2
TABLES
0
TABLE
2
VPORT
5
8
100
AcDbSymbolTable
0
ENDTAB
0
TABLE
2
LTYPE
5
5
100
AcDbSymbolTable
0
LTYPE
5
14
100
AcDbSymbolTableRecord
100
AcDbLinetypeTableRecord
2
BYBLOCK
70
0
0
LTYPE
5
15
100
AcDbSymbolTableRecord
100
AcDbLinetypeTableRecord
2
BYLAYER
70
0
0
ENDTAB
0
TABLE
2
LAYER
5
2
100
AcDbSymbolTable
70
2
0
LAYER
5
50
100
AcDbSymbolTableRecord
100
AcDbLayerTableRecord
2
0
70
0
6
CONTINUOUS
0
ENDTAB
0
TABLE
2
STYLE
5
3
100
AcDbSymbolTable
70
1
0
STYLE
5
11
100
AcDbSymbolTableRecord
100
AcDbTextStyleTableRecord
2
STANDARD
70
0
0
ENDTAB
0
TABLE
2
VIEW
5
6
100
AcDbSymbolTable
70
0
0
ENDTAB
0
TABLE
2
UCS
5
7
100
AcDbSymbolTable
70
0
0
ENDTAB
0
TABLE
2
APPID
5
9
100
AcDbSymbolTable
70
2
0
APPID
5
12
100
AcDbSymbolTableRecord
100
AcDbRegAppTableRecord
2
ACAD
70
0
0
ENDTAB
0
TABLE
2
DIMSTYLE
5
A
100
AcDbSymbolTable
70
1
0
ENDTAB
0
TABLE
2
BLOCK_RECORD
5
1
100
AcDbSymbolTable
70
1
0
BLOCK_RECORD
5
1F
100
AcDbSymbolTableRecord
100
AcDbBlockTableRecord
2
*MODEL_SPACE
0
BLOCK_RECORD
5
1B
100
AcDbSymbolTableRecord
100
AcDbBlockTableRecord
2
*PAPER_SPACE
0
ENDTAB
0
ENDSEC
0
SECTION
2
BLOCKS
0
BLOCK
5
20
100
AcDbEntity
100
AcDbBlockBegin
2
*MODEL_SPACE
0
ENDBLK
5
21
100
AcDbEntity
100
AcDbBlockEnd
0
BLOCK
5
1C
100
AcDbEntity
100
AcDbBlockBegin
2
*PAPER_SPACE
0
ENDBLK
5
1D
100
AcDbEntity
100
AcDbBlockEnd
0
ENDSEC
0
SECTION
2
ENTITIES
0
LINE
5
100
100
AcDbEntity
8
0
100
AcDbLine
10
-23.204133468164855
20
-14.416719544425092
30
0
11
-23.905994725877818
21
-14.416719544425122
31
0
0
ARC
5
101
100
AcDbEntity
8
0
100
AcDbCircle
10
-23.896855815372682
20
-14.31713801845379
30
0
40
0.10000000000000162
100
AcDbArc
50
175.4965552328056
51
264.7564736792105
0
LINE
5
102
100
AcDbEntity
8
0
100
AcDbLine
10
-23.996547076849886
20
-14.309286115176008
30
0
11
-23.96931070918211
21
-13.963481059408329
31
0
0
ARC
5
103
100
AcDbEntity
8
0
100
AcDbCircle
10
-27.313534835150755
20
-14.207237556438555
30
3.4810087584240756e-46
40
3.3530959178877029
100
AcDbArc
50
4.1688485544862859
51
15.799059259843036
0
SPLINE
5
104
100
AcDbEntity
8
0
100
AcDbSpline
70
1064
71
3
72
10
73
6
74
0
42
0.000000001
43
0.0000000001
44
0.0000000001
40
0
40
0
40
0
40
0
40
0.078576386393005904
40
0.078576386393005904
40
0.085281978664719815
40
0.085281978664719815
40
0.085281978664719815
40
0.085281978664719815
10
-24.423648151847299
20
-12.506706112383227
30
0
10
-24.29961157113312
20
-12.737395704129586
30
0
10
-24.189612054073663
20
-12.982695364961728
30
0
10
-24.100286942022883
20
-13.252608726099226
30
0
10
-24.093553346362082
20
-13.273589649666667
30
0
10
-24.087110619104564
20
-13.294308746143903
30
0
0
LINE
5
105
100
AcDbEntity
8
0
100
AcDbLine
10
-24.423648151847299
20
-12.506706112383227
30
0
11
-25.017480042195366
21
-12.506706112383226
31
0
0
SPLINE
5
106
100
AcDbEntity
8
0
100
AcDbSpline
70
1064
71
3
72
8
73
4
74
0
42
0.000000001
43
0.0000000001
44
0.0000000001
40
0.00346285560424974
40
0.00346285560424974
40
0.00346285560424974
40
0.00346285560424974
40
0.0044676571644830521
40
0.0044676571644830521
40
0.0044676571644830521
40
0.0044676571644830521
10
-25.376346476126386
20
-13.369079451881605
30
0
10
-25.312820177727431
20
-13.148260220087131
30
0
10
-25.204220152198094
20
-12.854014942497756
30
0
10
-25.017480042195363
20
-12.506706112383227
30
0
0
ARC
5
107
100
AcDbEntity
8
0
100
AcDbCircle
10
-22.203522280039397
20
-14.183556924142348
30
0
40
3.2756964041399357
100
AcDbArc
50
165.60280080185419
51
176.147712746846
0
LINE
5
108
100
AcDbEntity
8
0
100
AcDbLine
10
-25.471817484860544
20
-13.963481059408327
30
0
11
-25.444581117192776
21
-14.309286115176006
31
0
0
ARC
5
109
100
AcDbEntity
8
0
100
AcDbCircle
10
-25.54427237866992
20
-14.317138018453813
30
1.4833844141011686e-47
40
0.099999999999940581
100
AcDbArc
50
-84.756473679250291
51
4.5034447672113913
0
LINE
5
110
100
AcDbEntity
8
0
100
AcDbLine
10
-25.535133468164858
20
-14.416719544425092
30
3.0812308487535301e-34
11
-26.23699472587781
21
-14.416719544425122
31
0
0
ARC
5
111
100
AcDbEntity
8
0
100
AcDbCircle
10
-26.227855815372678
20
-14.31713801845379
30
0
40
0.10000000000000162
100
AcDbArc
50
175.4965552328056
51
264.75647367921255
0
LINE
5
112
100
AcDbEntity
8
0
100
AcDbLine
10
-26.327547076849882
20
-14.309286115176008
30
0
11
-26.300310709182106
21
-13.963481059408329
31
0
0
ARC
5
113
100
AcDbEntity
8
0
100
AcDbCircle
10
-29.64453483515075
20
-14.207237556438555
30
3.4810087584240756e-46
40
3.3530959178877029
100
AcDbArc
50
4.1688485544862859
51
15.79905925984299
0
SPLINE
5
114
100
AcDbEntity
8
0
100
AcDbSpline
70
1064
71
3
72
10
73
6
74
0
42
0.000000001
43
0.0000000001
44
0.0000000001
40
0
40
0
40
0
40
0
40
0.078576386393005904
40
0.078576386393005904
40
0.085281978664719815
40
0.085281978664719815
40
0.085281978664719815
40
0.085281978664719815
10
-26.754648151847292
20
-12.506706112383227
30
0
10
-26.630611571133116
20
-12.737395704129586
30
0
10
-26.520612054073656
20
-12.982695364961728
30
0
10
-26.431286942022876
20
-13.252608726099226
30
0
10
-26.424553346362075
20
-13.273589649666667
30
0
10
-26.418110619104564
20
-13.294308746143901
30
0
0
LINE
5
115
100
AcDbEntity
8
0
100
AcDbLine
10
-26.754648151847292
20
-12.506706112383227
30
0
11
-27.348480042195362
21
-12.506706112383226
31
0
0
SPLINE
5
116
100
AcDbEntity
8
0
100
AcDbSpline
70
1064
71
3
72
8
73
4
74
0
42
0.000000001
43
0.0000000001
44
0.0000000001
40
0.00346285560424974
40
0.00346285560424974
40
0.00346285560424974
40
0.00346285560424974
40
0.0044676571644830521
40
0.0044676571644830521
40
0.0044676571644830521
40
0.0044676571644830521
10
-27.707346476126382
20
-13.369079451881603
30
0
10
-27.643820177727427
20
-13.148260220087131
30
0
10
-27.535220152198086
20
-12.854014942497756
30
0
10
-27.348480042195359
20
-12.506706112383227
30
0
0
ARC
5
117
100
AcDbEntity
8
0
100
AcDbCircle
10
-24.534522280039393
20
-14.183556924142348
30
0
40
3.2756964041399361
100
AcDbArc
50
165.60280080185416
51
176.147712746846
0
LINE
5
118
100
AcDbEntity
8
0
100
AcDbLine
10
-27.80281748486054
20
-13.963481059408327
30
0
11
-27.775581117192768
21
-14.309286115176006
31
0
0
ARC
5
119
100
AcDbEntity
8
0
100
AcDbCircle
10
-27.875272378669912
20
-14.317138018453813
30
1.4833844141011686e-47
40
0.099999999999940581
100
AcDbArc
50
-84.756473679252281
51
4.5034447672113913
0
LINE
5
120
100
AcDbEntity
8
0
100
AcDbLine
10
-27.866133468164854
20
-14.416719544425092
30
3.0812308487535301e-34
11
-28.217133468164853
21
-14.416719544425087
31
0
0
LINE
5
121
100
AcDbEntity
8
0
100
AcDbLine
10
-28.217133468164853
20
-14.416719544425087
30
0
11
-28.217133468164889
21
-16.416719544425085
31
0
0
LINE
5
122
100
AcDbEntity
8
0
100
AcDbLine
10
-28.217133468164889
20
-16.416719544425085
30
0
11
6.7480052741221552
21
-16.416719544425128
31
0
0
LINE
5
123
100
AcDbEntity
8
0
100
AcDbLine
10
6.7480052741221552
20
-16.416719544425128
30
0
11
6.7480052741221872
21
-14.416719544425129
31
0
0
LINE
5
124
100
AcDbEntity
8
0
100
AcDbLine
10
6.7480052741221872
20
-14.416719544425129
30
0
11
6.3970052741221872
21
-14.416719544425122
31
0
0
ARC
5
125
100
AcDbEntity
8
0
100
AcDbCircle
10
6.4061441846273262
20
-14.31713801845379
30
0
40
0.10000000000000273
100
AcDbArc
50
175.49655523280572
51
264.75647367920897
0
LINE
5
126
100
AcDbEntity
8
0
100
AcDbLine
10
6.3064529231501183
20
-14.309286115176008
30
0
11
6.3336892908178886
21
-13.963481059408329
31
0
0
ARC
5
127
100
AcDbEntity
8
0
100
AcDbCircle
10
2.9894651648494226
20
-14.207237556438519
30
-2.0013662149170361e-46
40
3.3530959178875248
100
AcDbArc
50
4.1688485544858471
51
15.799059259843176
0
SPLINE
5
128
100
AcDbEntity
8
0
100
AcDbSpline
70
1064
71
3
72
10
73
6
74
0
42
0.000000001
43
0.0000000001
44
0.0000000001
40
0
40
0
40
0
40
0
40
0.078576386393005904
40
0.078576386393005904
40
0.085281978664719815
40
0.085281978664719815
40
0.085281978664719815
40
0.085281978664719815
10
5.8793518481527043
20
-12.506706112383227
30
0
10
6.0033884288668817
20
-12.737395704129586
30
0
10
6.1133879459263438
20
-12.982695364961728
30
0
10
6.2027130579771237
20
-13.252608726099226
30
0
10
6.2094466536379205
20
-13.273589649666667
30
0
10
6.2158893808954332
20
-13.294308746143903
30
0
0
LINE
5
129
100
AcDbEntity
8
0
100
AcDbLine
10
5.8793518481527043
20
-12.506706112383227
30
0
11
5.2855199578046372
21
-12.506706112383226
31
0
0
SPLINE
5
130
100
AcDbEntity
8
0
100
AcDbSpline
70
1064
71
3
72
8
73
4
74
0
42
0.000000001
43
0.0000000001
44
0.0000000001
40
0.00346285560424974
40
0.00346285560424974
40
0.00346285560424974
40
0.00346285560424974
40
0.0044676571644830521
40
0.0044676571644830521
40
0.0044676571644830521
40
0.0044676571644830521
10
4.9266535238736182
20
-13.369079451881603
30
0
10
4.9901798222725704
20
-13.148260220087131
30
0
10
5.09877984780191
20
-12.854014942497756
30
0
10
5.2855199578046381
20
-12.506706112383227
30
0
0
ARC
5
131
100
AcDbEntity
8
0
100
AcDbCircle
10
8.0994777199598467
20
-14.183556924142231
30
0
40
3.2756964041391696
100
AcDbArc
50
165.60280080185285
51
176.14771274684728
0
LINE
5
132
100
AcDbEntity
8
0
100
AcDbLine
10
4.8311825151394547
20
-13.963481059408329
30
0
11
4.8584188828072286
21
-14.309286115176006
31
0
0
ARC
5
133
100
AcDbEntity
8
0
100
AcDbCircle
10
4.7587276213300838
20
-14.317138018453811
30
-4.1695129477438252e-48
40
0.099999999999942704
100
AcDbArc
50
-84.756473679251883
51
4.5034447672103379
0
LINE
5
134
100
AcDbEntity
8
0
100
AcDbLine
10
4.7678665318351428
20
-14.416719544425092
30
3.0812308487535296e-34
11
4.0660052741221877
21
-14.416719544425122
31
0
0
ARC
5
135
100
AcDbEntity
8
0
100
AcDbCircle
10
4.0751441846273249
20
-14.317138018453793
30
0
40
0.10000000000000125
100
AcDbArc
50
175.4965552328035
51
264.75647367920982
0
LINE
5
136
100
AcDbEntity
8
0
100
AcDbLine
10
3.9754529231501197
20
-14.309286115176008
30
0
11
4.0026892908178899
21
-13.963481059408329
31
0
0
ARC
5
137
100
AcDbEntity
8
0
100
AcDbCircle
10
0.65846516484942108
20
-14.207237556438519
30
-1.9928133678447411e-46
40
3.353095917887527
100
AcDbArc
50
4.1688485544858471
51
15.799059259843197
0
SPLINE
5
138
100
AcDbEntity
8
0
100
AcDbSpline
70
1064
71
3
72
10
73
6
74
0
42
0.000000001
43
0.0000000001
44
0.0000000001
40
0
40
0
40
0
40
0
40
0.078576386393005904
40
0.078576386393005904
40
0.085281978664719815
40
0.085281978664719815
40
0.085281978664719815
40
0.085281978664719815
10
3.5483518481527048
20
-12.506706112383227
30
0
10
3.6723884288668822
20
-12.737395704129586
30
0
10
3.7823879459263448
20
-12.982695364961728
30
0
10
3.8717130579771251
20
-13.252608726099226
30
0
10
3.8784466536379214
20
-13.273589649666667
30
0
10
3.8848893808954346
20
-13.294308746143903
30
0
0
LINE
5
139
100
AcDbEntity
8
0
100
AcDbLine
10
3.5483518481527048
20
-12.506706112383227
30
0
11
2.9545199578046382
21
-12.506706112383226
31
0
0
SPLINE
5
140
100
AcDbEntity
8
0
100
AcDbSpline
70
1064
71
3
72
8
73
4
74
0
42
0.000000001
43
0.0000000001
44
0.0000000001
40
0.00346285560424974
40
0.00346285560424974
40
0.00346285560424974
40
0.00346285560424974
40
0.0044676571644830521
40
0.0044676571644830521
40
0.0044676571644830521
40
0.0044676571644830521
10
2.5956535238736187
20
-13.369079451881603
30
0
10
2.6591798222725704
20
-13.148260220087131
30
0
10
2.7677798478019104
20
-12.854014942497756
30
0
10
2.9545199578046395
20
-12.506706112383227
30
0
0
ARC
5
141
100
AcDbEntity
8
0
100
AcDbCircle
10
5.7684777199598454
20
-14.183556924142231
30
0
40
3.2756964041391678
100
AcDbArc
50
165.60280080185285
51
176.14771274684728
0
LINE
5
142
100
AcDbEntity
8
0
100
AcDbLine
10
2.5001825151394552
20
-13.963481059408329
30
0
11
2.527418882807229
21
-14.309286115176006
31
0
0
ARC
5
143
100
AcDbEntity
8
0
100
AcDbCircle
10
2.4277276213300842
20
-14.317138018453811
30
-3.7953258883309178e-48
40
0.099999999999942718
100
AcDbArc
50
-84.756473679251883
51
4.5034447672103379
0
LINE
5
144
100
AcDbEntity
8
0
100
AcDbLine
10
2.4368665318351432
20
-14.416719544425092
30
3.0812308487535296e-34
11
1.7350052741221877
21
-14.416719544425122
31
0
0
ARC
5
145
100
AcDbEntity
8
0
100
AcDbCircle
10
1.7441441846273251
20
-14.317138018453793
30
0
40
0.1000000000000015
100
AcDbArc
50
175.49655523280359
51
264.75647367920971
0
LINE
5
146
100
AcDbEntity
8
0
100
AcDbLine
10
1.6444529231501193
20
-14.309286115176008
30
0
11
1.6716892908178893
21
-13.963481059408329
31
0
0
ARC
5
147
100
AcDbEntity
8
0
100
AcDbCircle
10
-1.6725348351505258
20
-14.207237556438512
30
-2.9849436282309641e-46
40
3.3530959178874733
100
AcDbArc
50
4.1688485544858471
51
15.799059259843341
0
SPLINE
5
148
100
AcDbEntity
8
0
100
AcDbSpline
70
1064
71
3
72
10
73
6
74
0
42
0.000000001
43
0.0000000001
44
0.0000000001
40
0
40
0
40
0
40
0
40
0.078576386393005904
40
0.078576386393005904
40
0.085281978664719815
40
0.085281978664719815
40
0.085281978664719815
40
0.085281978664719815
10
1.2173518481527044
20
-12.506706112383227
30
0
10
1.341388428866882
20
-12.737395704129586
30
0
10
1.4513879459263446
20
-12.982695364961728
30
0
10
1.5407130579771251
20
-13.252608726099226
30
0
10
1.547446653637921
20
-13.273589649666667
30
0
10
1.5538893808954344
20
-13.294308746143903
30
0
0
LINE
5
149
100
AcDbEntity
8
0
100
AcDbLine
10
1.2173518481527044
20
-12.506706112383227
30
0
11
0.62351995780463787
21
-12.506706112383226
31
0
0
SPLINE
5
150
100
AcDbEntity
8
0
100
AcDbSpline
70
1064
71
3
72
8
73
4
74
0
42
0.000000001
43
0.0000000001
44
0.0000000001
40
0.00346285560424974
40
0.00346285560424974
40
0.00346285560424974
40
0.00346285560424974
40
0.0044676571644830521
40
0.0044676571644830521
40
0.0044676571644830521
40
0.0044676571644830521
10
0.26465352387361746
20
-13.369079451881607
30
0
10
0.32817982227257003
20
-13.148260220087131
30
0
10
0.43677984780191059
20
-12.854014942497756
30
0
10
0.62351995780463898
20
-12.506706112383227
30
0
0
ARC
5
151
100
AcDbEntity
8
0
100
AcDbCircle
10
3.4374777199598281
20
-14.183556924142229
30
0
40
3.2756964041391505
100
AcDbArc
50
165.60280080185285
51
176.14771274684728
0
LINE
5
152
100
AcDbEntity
8
0
100
AcDbLine
10
0.16918251513945631
20
-13.963481059408329
30
0
11
0.19641888280722872
21
-14.309286115176006
31
0
0
ARC
5
153
100
AcDbEntity
8
0
100
AcDbCircle
10
0.096727621330083752
20
-14.317138018453811
30
-3.3944111818170885e-48
40
0.099999999999942718
100
AcDbArc
50
-84.756473679251911
51
4.5034447672103379
0
LINE
5
154
100
AcDbEntity
8
0
100
AcDbLine
10
0.10586653183514269
20
-14.416719544425092
30
3.0812308487535288e-34
11
-0.59599472587781266
21
-14.416719544425122
31
0
0
ARC
5
155
100
AcDbEntity
8
0
100
AcDbCircle
10
-0.58685581537267639
20
-14.317138018453793
30
0
40
0.10000000000000059
100
AcDbArc
50
175.49655523280254
51
264.75647367921033
0
LINE
5
156
100
AcDbEntity
8
0
100
AcDbLine
10
-0.68654707684988103
20
-14.309286115176006
30
0
11
-0.6593107091821111
21
-13.963481059408329
31
0
0
ARC
5
157
100
AcDbEntity
8
0
100
AcDbCircle
10
-4.0035348351505791
20
-14.207237556438521
30
-1.3684555315672042e-46
40
3.3530959178875266
100
AcDbArc
50
4.1688485544859351
51
15.799059259843197
0
SPLINE
5
158
100
AcDbEntity
8
0
100
AcDbSpline
70
1064
71
3
72
10
73
6
74
0
42
0.000000001
43
0.0000000001
44
0.0000000001
40
0
40
0
40
0
40
0
40
0.078576386393005904
40
0.078576386393005904
40
0.085281978664719815
40
0.085281978664719815
40
0.085281978664719815
40
0.085281978664719815
10
-1.1136481518472958
20
-12.506706112383227
30
0
10
-0.98961157113311837
20
-12.737395704129586
30
0
10
-0.87961205407365584
20
-12.982695364961728
30
0
10
-0.79028694202287542
20
-13.252608726099226
30
0
10
-0.78355334636207929
20
-13.273589649666667
30
0
10
-0.77711061910456636
20
-13.294308746143901
30
0
0
LINE
5
159
100
AcDbEntity
8
0
100
AcDbLine
10
-1.1136481518472958
20
-12.506706112383227
30
0
11
-1.7074800421953622
21
-12.506706112383226
31
0
0
SPLINE
5
160
100
AcDbEntity
8
0
100
AcDbSpline
70
1064
71
3
72
8
73
4
74
0
42
0.000000001
43
0.0000000001
44
0.0000000001
40
0.00346285560424974
40
0.00346285560424974
40
0.00346285560424974
40
0.00346285560424974
40
0.0044676571644830521
40
0.0044676571644830521
40
0.0044676571644830521
40
0.0044676571644830521
10
-2.0663464761263817
20
-13.369079451881603
30
0
10
-2.0028201777274299
20
-13.148260220087131
30
0
10
-1.8942201521980895
20
-12.854014942497756
30
0
10
-1.7074800421953613
20
-12.506706112383227
30
0
0
ARC
5
161
100
AcDbEntity
8
0
100
AcDbCircle
10
1.1064777199598277
20
-14.183556924142229
30
0
40
3.2756964041391501
100
AcDbArc
50
165.60280080185282
51
176.14771274684728
0
LINE
5
162
100
AcDbEntity
8
0
100
AcDbLine
10
-2.1618174848605438
20
-13.963481059408329
30
0
11
-2.1345811171927713
21
-14.309286115176006
31
0
0
ARC
5
163
100
AcDbEntity
8
0
100
AcDbCircle
10
-2.2342723786699161
20
-14.317138018453811
30
-2.0446650032205297e-48
40
0.099999999999942704
100
AcDbArc
50
-84.756473679252124
51
4.5034447672103379
0
LINE
5
164
100
AcDbEntity
8
0
100
AcDbLine
10
-2.2251334681648576
20
-14.416719544425092
30
3.0812308487535296e-34
11
-2.9269947258778122
21
-14.416719544425122
31
0
0
ARC
5
165
100
AcDbEntity
8
0
100
AcDbCircle
10
-2.9178558153726755
20
-14.317138018453793
30
0
40
0.10000000000000125
100
AcDbArc
50
175.4965552328035
51
264.75647367921005
0
LINE
5
166
100
AcDbEntity
8
0
100
AcDbLine
10
-3.0175470768498807
20
-14.309286115176008
30
0
11
-2.9903107091821108
21
-13.963481059408329
31
0
0
ARC
5
167
100
AcDbEntity
8
0
100
AcDbCircle
10
-6.3345348351505804
20
-14.207237556438521
30
-1.3684555315672042e-46
40
3.3530959178875279
100
AcDbArc
50
4.1688485544859351
51
15.799059259843197
0
SPLINE
5
168
100
AcDbEntity
8
0
100
AcDbSpline
70
1064
71
3
72
10
73
6
74
0
42
0.000000001
43
0.0000000001
44
0.0000000001
40
0
40
0
40
0
40
0
40
0.078576386393005904
40
0.078576386393005904
40
0.085281978664719815
40
0.085281978664719815
40
0.085281978664719815
40
0.085281978664719815
10
-3.4446481518472956
20
-12.506706112383227
30
0
10
-3.3206115711331181
20
-12.737395704129586
30
0
10
-3.2106120540736556
20
-12.982695364961728
30
0
10
-3.1212869420228753
20
-13.252608726099226
30
0
10
-3.1145533463620785
20
-13.273589649666667
30
0
10
-3.1081106191045653
20
-13.294308746143903
30
0
0
LINE
5
169
100
AcDbEntity
8
0
100
AcDbLine
10
-3.4446481518472956
20
-12.506706112383227
30
0
11
-4.0384800421953617
21
-12.506706112383226
31
0
0
SPLINE
5
170
100
AcDbEntity
8
0
100
AcDbSpline
70
1064
71
3
72
8
73
4
74
0
42
0.000000001
43
0.0000000001
44
0.0000000001
40
0.00346285560424974
40
0.00346285560424974
40
0.00346285560424974
40
0.00346285560424974
40
0.0044676571644830521
40
0.0044676571644830521
40
0.0044676571644830521
40
0.0044676571644830521
10
-4.3973464761263816
20
-13.369079451881603
30
0
10
-4.3338201777274294
20
-13.148260220087131
30
0
10
-4.225220152198089
20
-12.854014942497756
30
0
10
-4.0384800421953608
20
-12.506706112383227
30
0
0
ARC
5
171
100
AcDbEntity
8
0
100
AcDbCircle
10
-1.2245222800401712
20
-14.183556924142229
30
0
40
3.2756964041391519
100
AcDbArc
50
165.60280080185282
51
176.14771274684728
0
LINE
5
172
100
AcDbEntity
8
0
100
AcDbLine
10
-4.4928174848605442
20
-13.963481059408327
30
0
11
-4.4655811171927713
21
-14.309286115176006
31
0
0
ARC
5
173
100
AcDbEntity
8
0
100
AcDbCircle
10
-4.5652723786699161
20
-14.317138018453811
30
-4.1695129477438252e-48
40
0.099999999999942704
100
AcDbArc
50
-84.756473679251883
51
4.5034447672103379
0
LINE
5
174
100
AcDbEntity
8
0
100
AcDbLine
10
-4.5561334681648571
20
-14.416719544425092
30
3.0812308487535296e-34
11
-5.257994725877813
21
-14.416719544425122
31
0
0
ARC
5
175
100
AcDbEntity
8
0
100
AcDbCircle
10
-5.2488558153726741
20
-14.31713801845379
30
0
40
0.10000000000000273
100
AcDbArc
50
175.4965552328056
51
264.75647367920897
0
LINE
5
176
100
AcDbEntity
8
0
100
AcDbLine
10
-5.3485470768498811
20
-14.309286115176008
30
0
11
-5.3213107091821108
21
-13.963481059408329
31
0
0
ARC
5
177
100
AcDbEntity
8
0
100
AcDbCircle
10
-8.6655348351505772
20
-14.207237556438519
30
-2.0013662149170361e-46
40
3.3530959178875239
100
AcDbArc
50
4.1688485544859351
51
15.799059259843176
0
SPLINE
5
178
100
AcDbEntity
8
0
100
AcDbSpline
70
1064
71
3
72
10
73
6
74
0
42
0.000000001
43
0.0000000001
44
0.0000000001
40
0
40
0
40
0
40
0
40
0.078576386393005904
40
0.078576386393005904
40
0.085281978664719815
40
0.085281978664719815
40
0.085281978664719815
40
0.085281978664719815
10
-5.775648151847296
20
-12.506706112383227
30
0
10
-5.6516115711331185
20
-12.737395704129586
30
0
10
-5.5416120540736555
20
-12.982695364961728
30
0
10
-5.4522869420228757
20
-13.252608726099226
30
0
10
-5.4455533463620789
20
-13.273589649666667
30
0
10
-5.4391106191045671
20
-13.294308746143901
30
0
0
LINE
5
179
100
AcDbEntity
8
0
100
AcDbLine
10
-5.775648151847296
20
-12.506706112383227
30
0
11
-6.3694800421953621
21
-12.506706112383226
31
0
0
SPLINE
5
180
100
AcDbEntity
8
0
100
AcDbSpline
70
1064
71
3
72
8
73
4
74
0
42
0.000000001
43
0.0000000001
44
0.0000000001
40
0.00346285560424974
40
0.00346285560424974
40
0.00346285560424974
40
0.00346285560424974
40
0.0044676571644830521
40
0.0044676571644830521
40
0.0044676571644830521
40
0.0044676571644830521
10
-6.728346476126382
20
-13.369079451881603
30
0
10
-6.6648201777274307
20
-13.148260220087131
30
0
10
-6.5562201521980903
20
-12.854014942497756
30
0
10
-6.3694800421953612
20
-12.506706112383227
30
0
0
ARC
5
181
100
AcDbEntity
8
0
100
AcDbCircle
10
-3.5555222800402992
20
-14.183556924142209
30
0
40
3.2756964041390231
100
AcDbArc
50
165.60280080185257
51
176.14771274684745
0
LINE
5
182
100
AcDbEntity
8
0
100
AcDbLine
10
-6.8238174848605437
20
-13.963481059408327
30
0
11
-6.7965811171927717
21
-14.309286115176006
31
0
0
ARC
5
183
100
AcDbEntity
8
0
100
AcDbCircle
10
-6.8962723786699174
20
-14.317138018453811
30
-3.3008644169638616e-48
40
0.099999999999942801
100
AcDbArc
50
-84.756473679251371
51
4.5034447672102571
0
LINE
5
184
100
AcDbEntity
8
0
100
AcDbLine
10
-6.8871334681648575
20
-14.416719544425092
30
3.0812308487535301e-34
11
-7.5889947258778134
21
-14.416719544425122
31
0
0
ARC
5
185
100
AcDbEntity
8
0
100
AcDbCircle
10
-7.5798558153726745
20
-14.31713801845379
30
0
40
0.10000000000000273
100
AcDbArc
50
175.49655523280572
51
264.75647367920897
0
LINE
5
186
100
AcDbEntity
8
0
100
AcDbLine
10
-7.6795470768498824
20
-14.309286115176008
30
0
11
-7.6523107091821121
21
-13.963481059408329
31
0
0
ARC
5
187
100
AcDbEntity
8
0
100
AcDbCircle
10
-10.996534835150506
20
-14.2072375564385
30
-4.1737893712799727e-46
40
3.353095917887452
100
AcDbArc
50
4.1688485544855851
51
15.799059259843176
0
SPLINE
5
188
100
AcDbEntity
8
0
100
AcDbSpline
70
1064
71
3
72
10
73
6
74
0
42
0.000000001
43
0.0000000001
44
0.0000000001
40
0
40
0
40
0
40
0
40
0.078576386393005904
40
0.078576386393005904
40
0.085281978664719815
40
0.085281978664719815
40
0.085281978664719815
40
0.085281978664719815
10
-8.1066481518472973
20
-12.506706112383227
30
0
10
-7.9826115711331189
20
-12.737395704129586
30
0
10
-7.8726120540736568
20
-12.982695364961728
30
0
10
-7.783286942022877
20
-13.252608726099226
30
0
10
-7.7765533463620802
20
-13.273589649666667
30
0
10
-7.7701106191045675
20
-13.294308746143901
30
0
0
LINE
5
189
100
AcDbEntity
8
0
100
AcDbLine
10
-8.1066481518472973
20
-12.506706112383227
30
0
11
-8.7004800421953625
21
-12.506706112383226
31
0
0
SPLINE
5
190
100
AcDbEntity
8
0
100
AcDbSpline
70
1064
71
3
72
8
73
4
74
0
42
0.000000001
43
0.0000000001
44
0.0000000001
40
0.00346285560424974
40
0.00346285560424974
40
0.00346285560424974
40
0.00346285560424974
40
0.0044676571644830521
40
0.0044676571644830521
40
0.0044676571644830521
40
0.0044676571644830521
10
-9.0593464761263824
20
-13.369079451881598
30
0
10
-8.9958201777274311
20
-13.148260220087131
30
0
10
-8.8872201521980916
20
-12.854014942497756
30
0
10
-8.7004800421953625
20
-12.506706112383227
30
0
0
ARC
5
191
100
AcDbEntity
8
0
100
AcDbCircle
10
-5.8865222800399035
20
-14.183556924142266
30
0
40
3.2756964041394232
100
AcDbArc
50
165.60280080185325
51
176.14771274684688
0
LINE
5
192
100
AcDbEntity
8
0
100
AcDbLine
10
-9.1548174848605441
20
-13.963481059408327
30
0
11
-9.1275811171927721
21
-14.309286115176006
31
0
0
ARC
5
193
100
AcDbEntity
8
0
100
AcDbCircle
10
-9.2272723786699178
20
-14.317138018453811
30
-3.3008644169638616e-48
40
0.099999999999942801
100
AcDbArc
50
-84.756473679251371
51
4.5034447672102571
0
LINE
5
194
100
AcDbEntity
8
0
100
AcDbLine
10
-9.2181334681648579
20
-14.416719544425092
30
3.0812308487535301e-34
11
-9.9199947258778121
21
-14.416719544425122
31
0
0
ARC
5
195
100
AcDbEntity
8
0
100
AcDbCircle
10
-9.910855815372674
20
-14.31713801845379
30
0
40
0.10000000000000273
100
AcDbArc
50
175.4965552328056
51
264.75647367920948
0
LINE
5
196
100
AcDbEntity
8
0
100
AcDbLine
10
-10.01054707684988
20
-14.309286115176008
30
0
11
-9.9833107091821098
21
-13.963481059408329
31
0
0
ARC
5
197
100
AcDbEntity
8
0
100
AcDbCircle
10
-13.327534835150507
20
-14.207237556438502
30
-4.1566836771353827e-46
40
3.3530959178874555
100
AcDbArc
50
4.1688485544856722
51
15.799059259843224
0
SPLINE
5
198
100
AcDbEntity
8
0
100
AcDbSpline
70
1064
71
3
72
10
73
6
74
0
42
0.000000001
43
0.0000000001
44
0.0000000001
40
0
40
0
40
0
40
0
40
0.078576386393005904
40
0.078576386393005904
40
0.085281978664719815
40
0.085281978664719815
40
0.085281978664719815
40
0.085281978664719815
10
-10.437648151847295
20
-12.506706112383227
30
0
10
-10.313611571133116
20
-12.737395704129586
30
0
10
-10.203612054073654
20
-12.982695364961728
30
0
10
-10.114286942022874
20
-13.252608726099226
30
0
10
-10.107553346362078
20
-13.273589649666667
30
0
10
-10.101110619104563
20
-13.294308746143901
30
0
0
LINE
5
199
100
AcDbEntity
8
0
100
AcDbLine
10
-10.437648151847295
20
-12.506706112383227
30
0
11
-11.03148004219536
21
-12.506706112383226
31
0
0
SPLINE
5
200
100
AcDbEntity
8
0
100
AcDbSpline
70
1064
71
3
72
8
73
4
74
0
42
0.000000001
43
0.0000000001
44
0.0000000001
40
0.00346285560424974
40
0.00346285560424974
40
0.00346285560424974
40
0.00346285560424974
40
0.0044676571644830521
40
0.0044676571644830521
40
0.0044676571644830521
40
0.0044676571644830521
10
-11.39034647612638
20
-13.369079451881603
30
0
10
-11.326820177727427
20
-13.148260220087131
30
0
10
-11.218220152198089
20
-12.854014942497756
30
0
10
-11.031480042195358
20
-12.506706112383227
30
0
0
ARC
5
201
100
AcDbEntity
8
0
100
AcDbCircle
10
-8.2175222800398977
20
-14.183556924142266
30
0
40
3.2756964041394241
100
AcDbArc
50
165.60280080185336
51
176.14771274684696
0
LINE
5
202
100
AcDbEntity
8
0
100
AcDbLine
10
-11.485817484860544
20
-13.963481059408329
30
0
11
-11.45858111719277
21
-14.309286115176006
31
0
0
ARC
5
203
100
AcDbEntity
8
0
100
AcDbCircle
10
-11.558272378669916
20
-14.317138018453807
30
-4.91788706656964e-48
40
0.099999999999945008
100
AcDbArc
50
-84.75647367925157
51
4.5034447672082321
0
LINE
5
204
100
AcDbEntity
8
0
100
AcDbLine
10
-11.549133468164856
20
-14.416719544425092
30
3.0812308487535296e-34
11
-12.25099472587781
21
-14.416719544425122
31
0
0
ARC
5
205
100
AcDbEntity
8
0
100
AcDbCircle
10
-12.241855815372681
20
-14.317138018453795
30
0
40
0.099999999999995495
100
AcDbArc
50
175.49655523280123
51
264.75647367921425
0
LINE
5
206
100
AcDbEntity
8
0
100
AcDbLine
10
-12.34154707684988
20
-14.309286115176006
30
0
11
-12.314310709182109
21
-13.963481059408329
31
0
0
ARC
5
207
100
AcDbEntity
8
0
100
AcDbCircle
10
-15.658534835150505
20
-14.2072375564385
30
-4.1908950654245628e-46
40
3.3530959178874502
100
AcDbArc
50
4.1688485544855851
51
15.799059259843197
0
SPLINE
5
208
100
AcDbEntity
8
0
100
AcDbSpline
70
1064
71
3
72
10
73
6
74
0
42
0.000000001
43
0.0000000001
44
0.0000000001
40
0
40
0
40
0
40
0
40
0.078576386393005904
40
0.078576386393005904
40
0.085281978664719815
40
0.085281978664719815
40
0.085281978664719815
40
0.085281978664719815
10
-12.768648151847295
20
-12.506706112383227
30
0
10
-12.644611571133117
20
-12.737395704129586
30
0
10
-12.534612054073655
20
-12.982695364961728
30
0
10
-12.445286942022875
20
-13.252608726099226
30
0
10
-12.438553346362077
20
-13.273589649666667
30
0
10
-12.432110619104566
20
-13.294308746143903
30
0
0
LINE
5
209
100
AcDbEntity
8
0
100
AcDbLine
10
-12.768648151847295
20
-12.506706112383227
30
0
11
-13.362480042195362
21
-12.506706112383226
31
0
0
SPLINE
5
210
100
AcDbEntity
8
0
100
AcDbSpline
70
1064
71
3
72
8
73
4
74
0
42
0.000000001
43
0.0000000001
44
0.0000000001
40
0.00346285560424974
40
0.00346285560424974
40
0.00346285560424974
40
0.00346285560424974
40
0.0044676571644830521
40
0.0044676571644830521
40
0.0044676571644830521
40
0.0044676571644830521
10
-13.72134647612638
20
-13.369079451881605
30
0
10
-13.65782017772743
20
-13.148260220087131
30
0
10
-13.549220152198089
20
-12.854014942497756
30
0
10
-13.362480042195362
20
-12.506706112383227
30
0
0
ARC
5
211
100
AcDbEntity
8
0
100
AcDbCircle
10
-10.548522280040158
20
-14.183556924142238
30
0
40
3.2756964041391639
100
AcDbArc
50
165.60280080185274
51
176.14771274684716
0
LINE
5
212
100
AcDbEntity
8
0
100
AcDbLine
10
-13.816817484860543
20
-13.963481059408329
30
0
11
-13.789581117192771
21
-14.309286115176006
31
0
0
ARC
5
213
100
AcDbEntity
8
0
100
AcDbCircle
10
-13.889272378669917
20
-14.317138018453811
30
-1.6704779438076223e-48
40
0.099999999999942801
100
AcDbArc
50
-84.756473679251371
51
4.5034447672102571
0
LINE
5
214
100
AcDbEntity
8
0
100
AcDbLine
10
-13.880133468164857
20
-14.416719544425092
30
3.0812308487535296e-34
11
-14.581994725877813
21
-14.416719544425122
31
0
0
ARC
5
215
100
AcDbEntity
8
0
100
AcDbCircle
10
-14.572855815372678
20
-14.317138018453795
30
0
40
0.099999999999997716
100
AcDbArc
50
175.49655523280143
51
264.75647367921118
0
LINE
5
216
100
AcDbEntity
8
0
100
AcDbLine
10
-14.672547076849881
20
-14.309286115176006
30
0
11
-14.645310709182111
21
-13.963481059408329
31
0
0
ARC
5
217
100
AcDbEntity
8
0
100
AcDbCircle
10
-17.989534835150508
20
-14.207237556438502
30
-4.1566836771353827e-46
40
3.3530959178874555
100
AcDbArc
50
4.1688485544856722
51
15.799059259843247
0
SPLINE
5
218
100
AcDbEntity
8
0
100
AcDbSpline
70
1064
71
3
72
10
73
6
74
0
42
0.000000001
43
0.0000000001
44
0.0000000001
40
0
40
0
40
0
40
0
40
0.078576386393005904
40
0.078576386393005904
40
0.085281978664719815
40
0.085281978664719815
40
0.085281978664719815
40
0.085281978664719815
10
-15.099648151847296
20
-12.506706112383227
30
0
10
-14.975611571133118
20
-12.737395704129586
30
0
10
-14.865612054073656
20
-12.982695364961728
30
0
10
-14.776286942022876
20
-13.252608726099226
30
0
10
-14.769553346362079
20
-13.273589649666667
30
0
10
-14.763110619104566
20
-13.294308746143903
30
0
0
LINE
5
219
100
AcDbEntity
8
0
100
AcDbLine
10
-15.099648151847296
20
-12.506706112383227
30
0
11
-15.693480042195363
21
-12.506706112383226
31
0
0
SPLINE
5
220
100
AcDbEntity
8
0
100
AcDbSpline
70
1064
71
3
72
8
73
4
74
0
42
0.000000001
43
0.0000000001
44
0.0000000001
40
0.00346285560424974
40
0.00346285560424974
40
0.00346285560424974
40
0.00346285560424974
40
0.0044676571644830521
40
0.0044676571644830521
40
0.0044676571644830521
40
0.0044676571644830521
10
-16.052346476126381
20
-13.369079451881603
30
0
10
-15.98882017772743
20
-13.148260220087131
30
0
10
-15.88022015219809
20
-12.854014942497756
30
0
10
-15.693480042195361
20
-12.506706112383227
30
0
0
ARC
5
221
100
AcDbEntity
8
0
100
AcDbCircle
10
-12.879522280040163
20
-14.183556924142238
30
0
40
3.2756964041391594
100
AcDbArc
50
165.60280080185271
51
176.14771274684705
0
LINE
5
222
100
AcDbEntity
8
0
100
AcDbLine
10
-16.147817484860546
20
-13.963481059408327
30
0
11
-16.120581117192771
21
-14.309286115176006
31
0
0
ARC
5
223
100
AcDbEntity
8
0
100
AcDbCircle
10
-16.220272378669918
20
-14.317138018453807
30
-4.91788706656964e-48
40
0.099999999999945008
100
AcDbArc
50
-84.756473679250533
51
4.5034447672082321
0
LINE
5
224
100
AcDbEntity
8
0
100
AcDbLine
10
-16.211133468164856
20
-14.416719544425092
30
3.0812308487535296e-34
11
-16.912994725877816
21
-14.416719544425122
31
0
0
ARC
5
225
100
AcDbEntity
8
0
100
AcDbCircle
10
-16.90385581537268
20
-14.317138018453795
30
0
40
0.099999999999997716
100
AcDbArc
50
175.49655523280151
51
264.75647367921022
0
LINE
5
226
100
AcDbEntity
8
0
100
AcDbLine
10
-17.003547076849884
20
-14.309286115176006
30
0
11
-16.976310709182115
21
-13.963481059408329
31
0
0
ARC
5
227
100
AcDbEntity
8
0
100
AcDbCircle
10
-20.320534835150511
20
-14.2072375564385
30
-4.1908950654245628e-46
40
3.3530959178874524
100
AcDbArc
50
4.1688485544855851
51
15.799059259843176
0
SPLINE
5
228
100
AcDbEntity
8
0
100
AcDbSpline
70
1064
71
3
72
10
73
6
74
0
42
0.000000001
43
0.0000000001
44
0.0000000001
40
0
40
0
40
0
40
0
40
0.078576386393005904
40
0.078576386393005904
40
0.085281978664719815
40
0.085281978664719815
40
0.085281978664719815
40
0.085281978664719815
10
-17.430648151847301
20
-12.506706112383227
30
0
10
-17.306611571133121
20
-12.737395704129586
30
0
10
-17.196612054073658
20
-12.982695364961728
30
0
10
-17.107286942022878
20
-13.252608726099226
30
0
10
-17.100553346362084
20
-13.273589649666667
30
0
10
-17.094110619104569
20
-13.294308746143903
30
0
0
LINE
5
229
100
AcDbEntity
8
0
100
AcDbLine
10
-17.430648151847301
20
-12.506706112383227
30
0
11
-18.024480042195364
21
-12.506706112383226
31
0
0
SPLINE
5
230
100
AcDbEntity
8
0
100
AcDbSpline
70
1064
71
3
72
8
73
4
74
0
42
0.000000001
43
0.0000000001
44
0.0000000001
40
0.00346285560424974
40
0.00346285560424974
40
0.00346285560424974
40
0.00346285560424974
40
0.0044676571644830521
40
0.0044676571644830521
40
0.0044676571644830521
40
0.0044676571644830521
10
-18.383346476126388
20
-13.369079451881603
30
0
10
-18.319820177727433
20
-13.148260220087131
30
0
10
-18.211220152198095
20
-12.854014942497756
30
0
10
-18.024480042195364
20
-12.506706112383227
30
0
0
ARC
5
231
100
AcDbEntity
8
0
100
AcDbCircle
10
-15.210522280040166
20
-14.183556924142238
30
0
40
3.2756964041391639
100
AcDbArc
50
165.60280080185271
51
176.14771274684705
0
LINE
5
232
100
AcDbEntity
8
0
100
AcDbLine
10
-18.478817484860549
20
-13.963481059408327
30
0
11
-18.451581117192774
21
-14.309286115176006
31
0
0
ARC
5
233
100
AcDbEntity
8
0
100
AcDbCircle
10
-18.551272378669921
20
-14.317138018453807
30
-4.91788706656964e-48
40
0.099999999999945008
100
AcDbArc
50
-84.756473679250533
51
4.5034447672082321
0
LINE
5
234
100
AcDbEntity
8
0
100
AcDbLine
10
-18.54213346816486
20
-14.416719544425092
30
3.0812308487535296e-34
11
-19.243994725877812
21
-14.416719544425122
31
0
0
ARC
5
235
100
AcDbEntity
8
0
100
AcDbCircle
10
-19.234855815372676
20
-14.317138018453795
30
0
40
0.099999999999997716
100
AcDbArc
50
175.49655523280134
51
264.75647367921022
0
LINE
5
236
100
AcDbEntity
8
0
100
AcDbLine
10
-19.334547076849876
20
-14.309286115176006
30
0
11
-19.307310709182108
21
-13.963481059408329
31
0
0
ARC
5
237
100
AcDbEntity
8
0
100
AcDbCircle
10
-22.651534835150503
20
-14.2072375564385
30
-4.1908950654245628e-46
40
3.3530959178874524
100
AcDbArc
50
4.1688485544855851
51
15.799059259843197
0
SPLINE
5
238
100
AcDbEntity
8
0
100
AcDbSpline
70
1064
71
3
72
10
73
6
74
0
42
0.000000001
43
0.0000000001
44
0.0000000001
40
0
40
0
40
0
40
0
40
0.078576386393005904
40
0.078576386393005904
40
0.085281978664719815
40
0.085281978664719815
40
0.085281978664719815
40
0.085281978664719815
10
-19.761648151847293
20
-12.506706112383227
30
0
10
-19.637611571133114
20
-12.737395704129586
30
0
10
-19.527612054073654
20
-12.982695364961728
30
0
10
-19.43828694202287
20
-13.252608726099226
30
0
10
-19.431553346362072
20
-13.273589649666667
30
0
10
-19.425110619104565
20
-13.294308746143901
30
0
0
LINE
5
239
100
AcDbEntity
8
0
100
AcDbLine
10
-19.761648151847293
20
-12.506706112383227
30
0
11
-20.35548004219536
21
-12.506706112383226
31
0
0
SPLINE
5
240
100
AcDbEntity
8
0
100
AcDbSpline
70
1064
71
3
72
8
73
4
74
0
42
0.000000001
43
0.0000000001
44
0.0000000001
40
0.00346285560424974
40
0.00346285560424974
40
0.00346285560424974
40
0.00346285560424974
40
0.0044676571644830521
40
0.0044676571644830521
40
0.0044676571644830521
40
0.0044676571644830521
10
-20.714346476126376
20
-13.369079451881603
30
0
10
-20.650820177727425
20
-13.148260220087131
30
0
10
-20.542220152198087
20
-12.854014942497756
30
0
10
-20.355480042195357
20
-12.506706112383227
30
0
0
ARC
5
241
100
AcDbEntity
8
0
100
AcDbCircle
10
-17.541522280040411
20
-14.183556924142184
30
0
40
3.2756964041389058
100
AcDbArc
50
165.60280080185248
51
176.14771274684773
0
LINE
5
242
100
AcDbEntity
8
0
100
AcDbLine
10
-20.809817484860538
20
-13.963481059408329
30
0
11
-20.78258111719277
21
-14.309286115176006
31
0
0
ARC
5
243
100
AcDbEntity
8
0
100
AcDbCircle
10
-20.882272378669914
20
-14.317138018453813
30
1.4833844141011686e-47
40
0.099999999999940581
100
AcDbArc
50
-84.756473679250291
51
4.5034447672113913
0
LINE
5
244
100
AcDbEntity
8
0
100
AcDbLine
10
-20.873133468164852
20
-14.416719544425092
30
3.0812308487535301e-34
11
-21.574994725877815
21
-14.416719544425122
31
0
0
ARC
5
245
100
AcDbEntity
8
0
100
AcDbCircle
10
-21.565855815372679
20
-14.31713801845379
30
0
40
0.10000000000000162
100
AcDbArc
50
175.4965552328056
51
264.7564736792105
0
LINE
5
246
100
AcDbEntity
8
0
100
AcDbLine
10
-21.665547076849883
20
-14.309286115176008
30
0
11
-21.638310709182107
21
-13.963481059408329
31
0
0
ARC
5
247
100
AcDbEntity
8
0
100
AcDbCircle
10
-24.982534835150751
20
-14.207237556438555
30
3.4810087584240756e-46
40
3.3530959178877029
100
AcDbArc
50
4.1688485544862859
51
15.799059259843036
0
SPLINE
5
248
100
AcDbEntity
8
0
100
AcDbSpline
70
1064
71
3
72
10
73
6
74
0
42
0.000000001
43
0.0000000001
44
0.0000000001
40
0
40
0
40
0
40
0
40
0.078576386393005904
40
0.078576386393005904
40
0.085281978664719815
40
0.085281978664719815
40
0.085281978664719815
40
0.085281978664719815
10
-22.092648151847296
20
-12.506706112383227
30
0
10
-21.968611571133117
20
-12.737395704129586
30
0
10
-21.85861205407366
20
-12.982695364961728
30
0
10
-21.76928694202288
20
-13.252608726099226
30
0
10
-21.762553346362079
20
-13.273589649666667
30
0
10
-21.756110619104568
20
-13.294308746143901
30
0
0
LINE
5
249
100
AcDbEntity
8
0
100
AcDbLine
10
-22.092648151847296
20
-12.506706112383227
30
0
11
-22.686480042195363
21
-12.506706112383226
31
0
0
SPLINE
5
250
100
AcDbEntity
8
0
100
AcDbSpline
70
1064
71
3
72
8
73
4
74
0
42
0.000000001
43
0.0000000001
44
0.0000000001
40
0.00346285560424974
40
0.00346285560424974
40
0.00346285560424974
40
0.00346285560424974
40
0.0044676571644830521
40
0.0044676571644830521
40
0.0044676571644830521
40
0.0044676571644830521
10
-23.045346476126383
20
-13.369079451881603
30
0
10
-22.981820177727428
20
-13.148260220087131
30
0
10
-22.87322015219809
20
-12.854014942497756
30
0
10
-22.68648004219536
20
-12.506706112383227
30
0
0
ARC
5
251
100
AcDbEntity
8
0
100
AcDbCircle
10
-19.872522280040414
20
-14.183556924142184
30
0
40
3.2756964041389103
100
AcDbArc
50
165.60280080185248
51
176.14771274684773
0
LINE
5
252
100
AcDbEntity
8
0
100
AcDbLine
10
-23.140817484860541
20
-13.963481059408329
30
0
11
-23.113581117192773
21
-14.309286115176006
31
0
0
ARC
5
253
100
AcDbEntity
8
0
100
AcDbCircle
10
-23.213272378669917
20
-14.317138018453813
30
1.4833844141011686e-47
40
0.099999999999940581
100
AcDbArc
50
-84.756473679250291
51
4.5034447672113913
0
ENDSEC
0
SECTION
2
OBJECTS
0
DICTIONARY
5
C
100
AcDbDictionary
3
ACAD_GROUP
350
D
3
ACAD_MLINESTYLE
350
17
0
DICTIONARY
5
D
100
AcDbDictionary
0
DICTIONARY
5
1A
330
C
100
AcDbDictionary
0
DICTIONARY
5
17
100
AcDbDictionary
0
ENDSEC
0
EOF
