0
SECTION
2
HEADER
9
$INSUNITS
70
4
9
$ACADVER
1
AC1014
9
$HANDSEED
5
FFFF
0
ENDSEC
0
SECTION
2
TABLES
0
TABLE
2
VPORT
5
8
100
AcDbSymbolTable
0
ENDTAB
0
TABLE
2
LTYPE
5
5
100
AcDbSymbolTable
0
LTYPE
5
14
100
AcDbSymbolTableRecord
100
AcDbLinetypeTableRecord
2
BYBLOCK
70
0
0
LTYPE
5
15
100
AcDbSymbolTableRecord
100
AcDbLinetypeTableRecord
2
BYLAYER
70
0
0
ENDTAB
0
TABLE
2
LAYER
5
2
100
AcDbSymbolTable
70
2
0
LAYER
5
50
100
AcDbSymbolTableRecord
100
AcDbLayerTableRecord
2
0
70
0
6
CONTINUOUS
0
ENDTAB
0
TABLE
2
STYLE
5
3
100
AcDbSymbolTable
70
1
0
STYLE
5
11
100
AcDbSymbolTableRecord
100
AcDbTextStyleTableRecord
2
STANDARD
70
0
0
ENDTAB
0
TABLE
2
VIEW
5
6
100
AcDbSymbolTable
70
0
0
ENDTAB
0
TABLE
2
UCS
5
7
100
AcDbSymbolTable
70
0
0
ENDTAB
0
TABLE
2
APPID
5
9
100
AcDbSymbolTable
70
2
0
APPID
5
12
100
AcDbSymbolTableRecord
100
AcDbRegAppTableRecord
2
ACAD
70
0
0
ENDTAB
0
TABLE
2
DIMSTYLE
5
A
100
AcDbSymbolTable
70
1
0
ENDTAB
0
TABLE
2
BLOCK_RECORD
5
1
100
AcDbSymbolTable
70
1
0
BLOCK_RECORD
5
1F
100
AcDbSymbolTableRecord
100
AcDbBlockTableRecord
2
*MODEL_SPACE
0
BLOCK_RECORD
5
1B
100
AcDbSymbolTableRecord
100
AcDbBlockTableRecord
2
*PAPER_SPACE
0
ENDTAB
0
ENDSEC
0
SECTION
2
BLOCKS
0
BLOCK
5
20
100
AcDbEntity
100
AcDbBlockBegin
2
*MODEL_SPACE
0
ENDBLK
5
21
100
AcDbEntity
100
AcDbBlockEnd
0
BLOCK
5
1C
100
AcDbEntity
100
AcDbBlockBegin
2
*PAPER_SPACE
0
ENDBLK
5
1D
100
AcDbEntity
100
AcDbBlockEnd
0
ENDSEC
0
SECTION
2
ENTITIES
0
CIRCLE
5
100
100
AcDbEntity
8
0
100
AcDbCircle
10
-2.996464904582183
20
3.3585797434622351
30
0
40
1.1499999999999999
0
LINE
5
101
100
AcDbEntity
8
0
100
AcDbLine
10
-12.325603962475384
20
2.6073263556230653
30
0
11
-11.979798906707709
21
2.6345627232908377
31
0
0
ARC
5
102
100
AcDbEntity
8
0
100
AcDbCircle
10
-11.971947003429923
20
2.5348714618136334
30
0
40
0.099999999999999839
100
AcDbArc
50
5.2435263207847056
51
94.503444767196513
0
ARC
5
103
100
AcDbEntity
8
0
100
AcDbCircle
10
-2.996464904582183
20
3.3585797434622351
30
0
40
8.9131999999995966
100
AcDbArc
50
185.24352632078762
51
189.75647367921241
0
ARC
5
104
100
AcDbEntity
8
0
100
AcDbCircle
10
-11.879306258153754
20
1.8311951398762507
30
0
40
0.099999999999997521
100
AcDbArc
50
-79.503444767197649
51
9.7564736792174624
0
LINE
5
105
100
AcDbEntity
8
0
100
AcDbLine
10
-11.861088617214698
20
1.7328685536514912
30
3.0814879110195048e-34
11
-12.202159942113859
21
1.6696759302706801
31
0
0
SPLINE
5
106
100
AcDbEntity
8
0
100
AcDbSpline
70
1064
71
3
72
10
73
6
74
0
42
0.000000001
43
0.0000000001
44
0.0000000001
40
-0.11573552721342421
40
-0.11573552721342421
40
-0.11573552721342421
40
-0.11573552721342421
40
-0.022339109388327727
40
-0.022339109388327727
40
0
40
0
40
0
40
0
10
-13.491705303471367
20
0.85377855983193607
30
0
10
-13.021567548856201
20
1.2962862169128366
30
0
10
-12.632465543454964
20
1.5044358416436501
30
0
10
-12.375401779172169
20
1.6143911058418727
30
0
10
-12.275377554295719
20
1.6561104011461849
30
0
10
-12.202159942113859
20
1.6696759302706801
30
0
0
ARC
5
107
100
AcDbEntity
8
0
100
AcDbCircle
10
-2.996464904582183
20
3.3585797434622351
30
0
40
10.789999999999598
100
AcDbArc
50
193.42315308195109
51
196.5768469180494
0
SPLINE
5
108
100
AcDbEntity
8
0
100
AcDbSpline
70
1064
71
3
72
16
73
12
74
0
42
0.000000001
43
0.0000000001
44
0.0000000001
40
-0.2614343939264675
40
-0.2614343939264675
40
-0.2614343939264675
40
-0.2614343939264675
40
-0.25940044828115977
40
-0.25940044828115977
40
-0.25561558196704198
40
-0.25561558196704198
40
-0.24199493155970248
40
-0.24199493155970248
40
-0.19345101821724861
40
-0.19345101821724861
40
0
40
0
40
0
40
0
10
-11.813282573172696
20
0.21836583146856492
30
0
10
-11.815054055575416
20
0.21773839678444762
30
0
10
-11.816828490031872
20
0.21712306280708304
30
0
10
-11.821919589998464
20
0.21539499793931993
30
0
10
-11.825238032705105
20
0.21431378127774237
30
0
10
-11.840586275834502
20
0.2095134341777305
30
0
10
-11.852564735540614
20
0.20632940984676718
30
0
10
-11.908395641089985
20
0.19324230811751886
30
0
10
-11.979839915800927
20
0.18123604145935723
30
0
10
-12.266038043120034
20
0.1455877191634658
30
0
10
-12.710380683138174
20
0.13220982692175365
30
0
10
-13.338010300660057
20
0.28018100047068173
30
0
0
LINE
5
109
100
AcDbEntity
8
0
100
AcDbLine
10
-11.813282573172696
20
0.21836583146856492
30
0
11
-11.4863098296172
21
0.33417507673858593
31
0
0
ARC
5
110
100
AcDbEntity
8
0
100
AcDbCircle
10
-11.452923476355068
20
0.23991293473101138
30
0
40
0.10000000000000103
100
AcDbArc
50
20.243526320781957
51
109.5034447671965
0
ARC
5
111
100
AcDbEntity
8
0
100
AcDbCircle
10
-2.996464904582183
20
3.3585797434622351
30
0
40
8.9131999999996054
100
AcDbArc
50
200.24352632078836
51
204.75647367921309
0
ARC
5
112
100
AcDbEntity
8
0
100
AcDbCircle
10
-11.181314554221068
20
-0.41580900874643445
30
0
40
0.10000000000000016
100
AcDbArc
50
-64.503444767196186
51
24.756473679217446
0
LINE
5
113
100
AcDbEntity
8
0
100
AcDbLine
10
-11.138268871189085
20
-0.50607012535990326
30
-9.2444637330587557e-34
11
-11.451363018074872
21
-0.65538526693663779
31
0
0
SPLINE
5
114
100
AcDbEntity
8
0
100
AcDbSpline
70
1064
71
3
72
10
73
6
74
0
42
0.000000001
43
0.0000000001
44
0.0000000001
40
-0.11573552719642985
40
-0.11573552719642985
40
-0.11573552719642985
40
-0.11573552719642985
40
-0.022339109389030248
40
-0.022339109389030248
40
0
40
0
40
0
40
0
10
-12.485798408462749
20
-1.7772405076876951
30
0
10
-12.146209618614423
20
-1.228130328653219
30
0
10
-11.824239029639473
20
-0.92636622090993326
30
0
10
-11.604393017220717
20
-0.75362459349685718
30
0
10
-11.518574783328351
20
-0.68743867433586903
30
0
10
-11.451363018074872
20
-0.65538526693663779
30
0
0
ARC
5
115
100
AcDbEntity
8
0
100
AcDbCircle
10
-2.996464904582183
20
3.3585797434622351
30
0
40
10.789999999999626
100
AcDbArc
50
208.42315308195163
51
211.57684691805017
0
SPLINE
5
116
100
AcDbEntity
8
0
100
AcDbSpline
70
1064
71
3
72
16
73
12
74
0
42
0.000000001
43
0.0000000001
44
0.0000000001
40
-0.26143439415053521
40
-0.26143439415053521
40
-0.26143439415053521
40
-0.26143439415053521
40
-0.25940044849610866
40
-0.25940044849610866
40
-0.25561558216687369
40
-0.25561558216687369
40
-0.24199493170770797
40
-0.24199493170770797
40
-0.19345101819590232
40
-0.19345101819590232
40
0
40
0
40
0
40
0
10
-10.700109630235655
20
-1.9565943040324074
30
0
10
-10.701658358794674
20
-1.9576588527828354
30
0
10
-10.703213070712049
20
-1.9587124771958286
30
0
10
-10.707683439556867
20
-1.9616993333141286
30
0
10
-10.710608969607067
20
-1.9636025845843119
30
0
10
-10.724191812781607
20
-1.9722117814540086
30
0
10
-10.734938030233698
20
-1.9783875662894346
30
0
10
-10.785479352623867
20
-2.0054788374953061
30
0
10
-10.851381772268864
20
-2.0355671395184394
30
0
10
-11.118601470110827
20
-2.1440743006605976
30
0
10
-11.54434104861088
20
-2.2720006901009784
30
0
10
-12.188882463288715
20
-2.2915140103064537
30
0
0
LINE
5
117
100
AcDbEntity
8
0
100
AcDbLine
10
-10.700109630235655
20
-1.9565943040324074
30
0
11
-10.414251851017639
21
-1.7601043898414648
31
0
0
ARC
5
118
100
AcDbEntity
8
0
100
AcDbCircle
10
-10.357606272572417
20
-1.8425136031771483
30
0
40
0.10000000000000016
100
AcDbArc
50
35.243526320788185
51
124.50344476719607
0
ARC
5
119
100
AcDbEntity
8
0
100
AcDbCircle
10
-2.996464904582183
20
3.3585797434622351
30
0
40
8.9131999999996445
100
AcDbArc
50
215.2435263207889
51
219.75647367921363
0
ARC
5
120
100
AcDbEntity
8
0
100
AcDbCircle
10
-9.9255388727690494
20
-2.4055948013784265
30
0
40
0.10000000000000038
100
AcDbArc
50
-49.503444767196257
51
39.756473679217649
0
LINE
5
121
100
AcDbEntity
8
0
100
AcDbLine
10
-9.8605986398064189
20
-2.4816393024469425
30
-3.0814879110195844e-34
11
-10.124378759981107
21
-2.7069013820760865
31
0
0
SPLINE
5
122
100
AcDbEntity
8
0
100
AcDbSpline
70
1064
71
3
72
10
73
6
74
0
42
0.000000001
43
0.0000000001
44
0.0000000001
40
-0.11573552725741101
40
-0.11573552725741101
40
-0.11573552725741101
40
-0.11573552725741101
40
-0.022339109386795793
40
-0.022339109386795793
40
0
40
0
40
0
40
0
10
-10.833209117029721
20
-4.0582619124357171
30
0
10
-10.647311706760203
20
-3.4399701626107642
30
0
10
-10.414414297770287
20
-3.065156297145017
30
0
10
-10.246768179654588
20
-2.8414003630029367
30
0
10
-10.1810043075689
20
-2.755258281001292
30
0
10
-10.124378759981106
20
-2.7069013820760874
30
0
0
ARC
5
123
100
AcDbEntity
8
0
100
AcDbCircle
10
-2.996464904582183
20
3.3585797434622351
30
0
40
10.789999999999678
100
AcDbArc
50
223.42315308195211
51
226.57684691805059
0
SPLINE
5
124
100
AcDbEntity
8
0
100
AcDbSpline
70
1064
71
3
72
16
73
12
74
0
42
0.000000001
43
0.0000000001
44
0.0000000001
40
-0.26143439399048612
40
-0.26143439399048612
40
-0.26143439399048612
40
-0.26143439399048612
40
-0.25940044834304349
40
-0.25940044834304349
40
-0.25561558202493218
40
-0.25561558202493218
40
-0.24199493160280972
40
-0.24199493160280972
40
-0.19345101820956614
40
-0.19345101820956614
40
0
40
0
40
0
40
0
10
-9.0619460301201507
20
-3.7693341119370434
30
0
10
-9.063166461541174
20
-3.7707632275140317
30
0
10
-9.0643954998691108
20
-3.7721833395984432
30
0
10
-9.0679404893394953
20
-3.7762254376565991
30
0
10
-9.0702737366936415
20
-3.7788210201058199
30
0
10
-9.0811655315972128
20
-3.7906523642061889
30
0
10
-9.089947169835412
20
-3.7993990400160897
30
0
10
-9.1317546014902362
20
-3.8386482553478412
30
0
10
-9.1876240250241068
20
-3.8847681246431391
30
0
10
-9.4176547126452732
20
-4.0587395409970179
30
0
10
-9.7957777807883559
20
-4.2924964555533309
30
0
10
-10.413306560479779
20
-4.4781644689856588
30
0
0
LINE
5
125
100
AcDbEntity
8
0
100
AcDbLine
10
-9.0619460301201507
20
-3.7693341119370434
30
0
11
-8.8366839504910075
21
-3.5055539917623562
31
0
0
ARC
5
126
100
AcDbEntity
8
0
100
AcDbCircle
10
-8.7606394494224897
20
-3.5704942247249853
30
0
40
0.10000000000000064
100
AcDbArc
50
50.243526320785193
51
139.50344476719749
0
ARC
5
127
100
AcDbEntity
8
0
100
AcDbCircle
10
-2.996464904582183
20
3.3585797434622351
30
0
40
8.9131999999997085
100
AcDbArc
50
230.2435263207895
51
234.7564736792142
0
ARC
5
128
100
AcDbEntity
8
0
100
AcDbCircle
10
-8.1975582512212064
20
-4.0025616245283606
30
0
40
0.10000000000000024
100
AcDbArc
50
-34.503444767196477
51
54.756473679220697
0
LINE
5
129
100
AcDbEntity
8
0
100
AcDbLine
10
-8.1151490378855229
20
-4.0592072029735835
30
3.0814879110195861e-34
11
-8.311638952076466
21
-4.3450649821915981
31
4.8148248609680896e-34
0
SPLINE
5
130
100
AcDbEntity
8
0
100
AcDbSpline
70
1064
71
3
72
10
73
6
74
0
42
0.000000001
43
0.0000000001
44
0.0000000001
40
-0.11573552723427903
40
-0.11573552723427903
40
-0.11573552723427903
40
-0.11573552723427903
40
-0.02233910938747528
40
-0.02233910938747528
40
0
40
0
40
0
40
0
10
-8.646558658350509
20
-5.8338378152446584
30
0
10
-8.6270212290131525
20
-5.1885000556237948
30
0
10
-8.4990685735481541
20
-4.7661793779961314
30
0
10
-8.3950471555940407
20
-4.5066577342104885
30
0
10
-8.3538193445166193
20
-4.4064299298996525
30
0
10
-8.311638952076466
20
-4.3450649821915981
30
0
0
ARC
5
131
100
AcDbEntity
8
0
100
AcDbCircle
10
-2.996464904582183
20
3.3585797434622351
30
0
40
10.789999999999754
100
AcDbArc
50
238.42315308195253
51
241.57684691805079
0
SPLINE
5
132
100
AcDbEntity
8
0
100
AcDbSpline
70
1064
71
3
72
16
73
12
74
0
42
0.000000001
43
0.0000000001
44
0.0000000001
40
-0.26143439392699869
40
-0.26143439392699869
40
-0.26143439392699869
40
-0.26143439392699869
40
-0.25940044828269954
40
-0.25940044828269954
40
-0.25561558196946976
40
-0.25561558196946976
40
-0.24199493156447208
40
-0.24199493156447208
40
-0.19345101822449673
40
-0.19345101822449673
40
0
40
0
40
0
40
0
10
-7.010429914980695
20
-5.0963183700308123
30
0
10
-7.0112388788804347
20
-5.0980146605702448
30
0
10
-7.0120584866892175
20
-5.0997044820351363
30
0
10
-7.0144365116126295
20
-5.1045263597308832
30
0
10
-7.0160184693200653
20
-5.1076373887049309
30
0
10
-7.0234769581294954
20
-5.1218845934872315
30
0
10
-7.0296955630199314
20
-5.1326060887694824
30
0
10
-7.059919996556637
20
-5.1813384790652623
30
0
10
-7.1019490151142044
20
-5.2403469227644273
30
0
10
-7.2791144812517352
20
-5.4679267297640566
30
0
10
-7.5838525768513474
20
-5.7915840220193671
30
0
10
-8.1322851557317506
20
-6.1307537604186901
30
0
0
LINE
5
133
100
AcDbEntity
8
0
100
AcDbLine
10
-7.010429914980695
20
-5.0963183700308123
30
0
11
-6.8611147734039601
21
-4.7832242231450248
31
-4.8148248609680896e-34
0
ARC
5
134
100
AcDbEntity
8
0
100
AcDbCircle
10
-6.770853656790492
20
-4.8262699061770062
30
0
40
0.099999999999999867
100
AcDbArc
50
65.243526320789698
51
154.50344476719647
0
ARC
5
135
100
AcDbEntity
8
0
100
AcDbCircle
10
-2.996464904582183
20
3.3585797434622351
30
0
40
8.9131999999997902
100
AcDbArc
50
245.2435263207899
51
249.75647367921462
0
ARC
5
136
100
AcDbEntity
8
0
100
AcDbCircle
10
-6.1151317133130458
20
-5.0978788283110088
30
0
40
0.099999999999999784
100
AcDbArc
50
-19.503444767196545
51
69.756473679213983
0
LINE
5
137
100
AcDbEntity
8
0
100
AcDbLine
10
-6.0208695713054716
20
-5.1312651815731414
30
-7.5498528403687849e-50
11
-6.1366788165754915
21
-5.4582379251286373
31
9.6296497219361793e-34
0
SPLINE
5
138
100
AcDbEntity
8
0
100
AcDbSpline
70
1064
71
3
72
10
73
6
74
0
42
0.000000001
43
0.0000000001
44
0.0000000001
40
-0.11573552723599782
40
-0.11573552723599782
40
-0.11573552723599782
40
-0.11573552723599782
40
-0.022339109387090297
40
-0.022339109387090297
40
0
40
0
40
0
40
0
10
-6.0748636475733733
20
-6.9829656526159978
30
0
10
-6.2230176427121888
20
-6.3545605851079046
30
0
10
-6.2087295027660012
20
-5.9135135515112331
30
0
10
-6.1754216727040445
20
-5.6359121692304015
30
0
10
-6.1615395298274533
20
-5.5284290018409248
30
0
10
-6.1366788165754915
20
-5.4582379251286373
30
0
0
ARC
5
139
100
AcDbEntity
8
0
100
AcDbCircle
10
-2.996464904582183
20
3.3585797434622351
30
0
40
10.789999999999845
100
AcDbArc
50
253.42315308195279
51
256.57684691805116
0
SPLINE
5
140
100
AcDbEntity
8
0
100
AcDbSpline
70
1064
71
3
72
16
73
12
74
0
42
0.000000001
43
0.0000000001
44
0.0000000001
40
-0.26143439411747538
40
-0.26143439411747538
40
-0.26143439411747538
40
-0.26143439411747538
40
-0.25940044846480664
40
-0.25940044846480664
40
-0.25561558213752278
40
-0.25561558213752278
40
-0.24199493168337061
40
-0.24199493168337061
40
-0.19345101819168567
40
-0.19345101819168567
40
0
40
0
40
0
40
0
10
-4.6853687177733754
20
-5.8471152940697957
30
0
10
-4.6857110845991201
20
-5.8489631601752201
30
0
10
-4.6860654069711867
20
-5.8508075324807907
30
0
10
-4.6871144088797179
20
-5.8560805868194166
30
0
10
-4.6878372691371588
20
-5.8594950508353101
30
0
10
-4.6913541681662805
20
-5.8751871928387018
30
0
10
-4.6945859520625
20
-5.8871528554079759
30
0
10
-4.7111676422728275
20
-5.9420473887780538
30
0
10
-4.7364920477029173
20
-6.0099230789933955
30
0
10
-4.8487187586725797
20
-6.2756020888906106
30
0
10
-5.0593044841882309
20
-6.6671030493225247
30
0
10
-5.5012660882121187
20
-7.1366606554273071
30
0
0
LINE
5
141
100
AcDbEntity
8
0
100
AcDbLine
10
-4.6853687177733754
20
-5.8471152940697957
30
0
11
-4.6221760943925672
21
-5.5060439691706309
31
-4.8148248609680896e-34
0
ARC
5
142
100
AcDbEntity
8
0
100
AcDbCircle
10
-4.523849508167805
20
-5.5242616101096882
30
0
40
0.10000000000000009
100
AcDbArc
50
80.243526320788632
51
169.50344476719746
0
ARC
5
143
100
AcDbEntity
8
0
100
AcDbCircle
10
-2.996464904582183
20
3.3585797434622351
30
0
40
8.9131999999998826
100
AcDbArc
50
260.24352632079018
51
264.75647367921488
0
ARC
5
144
100
AcDbEntity
8
0
100
AcDbCircle
10
-3.8201731862304324
20
-5.6169023553858572
30
0
40
0.10000000000000023
100
AcDbArc
50
-4.5034447671969682
51
84.756473679210316
0
LINE
5
145
100
AcDbEntity
8
0
100
AcDbLine
10
-3.7204819247532277
20
-5.6247542586636436
30
2.8303007301310529e-50
11
-3.7477182924210006
21
-5.9705593144313198
31
-4.8148248609680896e-34
0
SPLINE
5
146
100
AcDbEntity
8
0
100
AcDbSpline
70
1064
71
3
72
10
73
6
74
0
42
0.000000001
43
0.0000000001
44
0.0000000001
40
-0.1157355272042208
40
-0.1157355272042208
40
-0.1157355272042208
40
-0.1157355272042208
40
-0.022339109388199396
40
-0.022339109388199396
40
0
40
0
40
0
40
0
10
-3.293380849755815
20
-7.4273342614564219
30
0
10
-3.5991298194326116
20
-6.8586866529400714
30
0
10
-3.6994799081292529
20
-6.4289698898518584
30
0
10
-3.7391555395421583
20
-6.1522068445083828
30
0
10
-3.7535651099619338
20
-6.0447931142708811
30
0
10
-3.7477182924210006
20
-5.970559314431318
30
0
0
ARC
5
147
100
AcDbEntity
8
0
100
AcDbCircle
10
-2.996464904582183
20
3.3585797434622351
30
0
40
10.789999999999944
100
AcDbArc
50
268.42315308195293
51
271.57684691805139
0
SPLINE
5
148
100
AcDbEntity
8
0
100
AcDbSpline
70
1064
71
3
72
16
73
12
74
0
42
0.000000001
43
0.0000000001
44
0.0000000001
40
-0.26143439401986651
40
-0.26143439401986651
40
-0.26143439401986651
40
-0.26143439401986651
40
-0.25940044837115256
40
-0.25940044837115256
40
-0.25561558205089907
40
-0.25561558205089907
40
-0.24199493162147573
40
-0.24199493162147573
40
-0.19345101820689153
40
-0.19345101820689153
40
0
40
0
40
0
40
0
10
-2.2452115167425659
20
-5.970559314431318
30
0
10
-2.2450639547607505
20
-5.9724328270807732
30
0
10
-2.244928845211835
20
-5.9743060593018011
30
0
10
-2.2445773363584274
20
-5.9796709403428565
30
0
10
-2.2443918374337564
20
-5.9831561493202106
30
0
10
-2.2437274758254682
20
-5.9992238349995457
30
0
10
-2.2437521979955997
20
-6.0116182247258436
30
0
10
-2.2455611301053207
20
-6.0689339294666045
30
0
10
-2.2524551060204154
20
-6.1410512500390464
30
0
10
-2.2920949968852806
20
-6.4267238773701756
30
0
10
-2.3941772830617265
20
-6.8593883624191898
30
0
10
-2.6995489594077497
20
-7.4273342614564219
30
0
0
LINE
5
149
100
AcDbEntity
8
0
100
AcDbLine
10
-2.2452115167425659
20
-5.970559314431318
30
0
11
-2.2724478844103384
21
-5.6247542586636428
31
4.8148248609680896e-34
0
ARC
5
150
100
AcDbEntity
8
0
100
AcDbCircle
10
-2.1727566229331337
20
-5.6169023553858572
30
0
40
0.099999999999999548
100
AcDbArc
50
95.243526320782664
51
184.5034447671965
0
ARC
5
151
100
AcDbEntity
8
0
100
AcDbCircle
10
-2.996464904582183
20
3.3585797434622351
30
0
40
8.9131999999999891
100
AcDbArc
50
275.24352632079035
51
279.75647367921482
0
ARC
5
152
100
AcDbEntity
8
0
100
AcDbCircle
10
-1.4690803009957534
20
-5.5242616101096882
30
0
40
0.1000000000000002
100
AcDbArc
50
10.496555232803059
51
99.756473679221884
0
LINE
5
153
100
AcDbEntity
8
0
100
AcDbLine
10
-1.3707537147709914
20
-5.50604396917063
30
0
11
-1.3075610913901827
21
-5.8471152940697921
31
-9.6296497219361793e-34
0
SPLINE
5
154
100
AcDbEntity
8
0
100
AcDbSpline
70
1064
71
3
72
10
73
6
74
0
42
0.000000001
43
0.0000000001
44
0.0000000001
40
-0.11573552721729563
40
-0.11573552721729563
40
-0.11573552721729563
40
-0.11573552721729563
40
-0.022339109388175998
40
-0.022339109388175998
40
0
40
0
40
0
40
0
10
-0.49166372095143906
20
-7.1366606554273027
30
0
10
-0.93417137803455419
20
-6.6665229008097837
30
0
10
-1.142321002765526
20
-6.2774208954065935
30
0
10
-1.2522762669615219
20
-6.0203571311274668
30
0
10
-1.2939955622657793
20
-5.920332906251156
30
0
10
-1.3075610913901827
20
-5.847115294069793
30
0
0
ARC
5
155
100
AcDbEntity
8
0
100
AcDbCircle
10
-2.996464904582183
20
3.3585797434622351
30
0
40
10.790000000000049
100
AcDbArc
50
283.42315308195299
51
286.5768469180515
0
SPLINE
5
156
100
AcDbEntity
8
0
100
AcDbSpline
70
1064
71
3
72
16
73
12
74
0
42
0.000000001
43
0.0000000001
44
0.0000000001
40
-0.26143439392966339
40
-0.26143439392966339
40
-0.26143439392966339
40
-0.26143439392966339
40
-0.25940044828439529
40
-0.25940044828439529
40
-0.25561558197017398
40
-0.25561558197017398
40
-0.24199493156237986
40
-0.24199493156237986
40
-0.19345101821886587
40
-0.19345101821886587
40
0
40
0
40
0
40
0
10
0.14374900741193186
20
-5.4582379251286328
30
0
10
0.14437644209606693
20
-5.4600094075313983
30
0
10
0.14499177607345259
20
-5.4617838419879217
30
0
10
0.14671984094119406
20
-5.4668749419544493
30
0
10
0.14780105760277162
20
-5.4701933846610951
30
0
10
0.15260140470274797
20
-5.4855416277903828
30
0
10
0.15578542903377401
20
-5.4975200874967456
30
0
10
0.16887253076242337
20
-5.5533509930435043
30
0
10
0.18087879742078761
20
-5.6247952677547275
30
0
10
0.21652711971659133
20
-5.9109933950696814
30
0
10
0.22990501195998048
20
-6.355336035088861
30
0
10
0.081933838409815052
20
-6.9829656526159933
30
0
0
LINE
5
157
100
AcDbEntity
8
0
100
AcDbLine
10
0.14374900741193186
20
-5.4582379251286328
30
0
11
0.027939762141910851
21
-5.1312651815731369
31
0
0
ARC
5
158
100
AcDbEntity
8
0
100
AcDbCircle
10
0.1222019041494854
20
-5.0978788283110044
30
0
40
0.10000000000000023
100
AcDbArc
50
110.24352632078809
51
199.50344476719647
0
ARC
5
159
100
AcDbEntity
8
0
100
AcDbCircle
10
-2.996464904582183
20
3.3585797434622351
30
0
40
8.9132000000000922
100
AcDbArc
50
290.24352632079018
51
294.75647367921471
0
ARC
5
160
100
AcDbEntity
8
0
100
AcDbCircle
10
0.77792384762693356
20
-4.8262699061770009
30
0
40
0.10000000000000003
100
AcDbArc
50
25.496555232803399
51
114.75647367921975
0
LINE
5
161
100
AcDbEntity
8
0
100
AcDbLine
10
0.86818496424040226
20
-4.7832242231450195
30
0
11
1.0175001058171353
21
-5.0963183700308079
31
0
0
SPLINE
5
162
100
AcDbEntity
8
0
100
AcDbSpline
70
1064
71
3
72
10
73
6
74
0
42
0.000000001
43
0.0000000001
44
0.0000000001
40
-0.11573552719642985
40
-0.11573552719642985
40
-0.11573552719642985
40
-0.11573552719642985
40
-0.022339109389030248
40
-0.022339109389030248
40
0
40
0
40
0
40
0
10
2.1393553465681929
20
-6.130753760418683
30
0
10
1.5902451675337166
20
-5.7911649705703567
30
0
10
1.2884810597904308
20
-5.4691943815954076
30
0
10
1.1157394323773546
20
-5.249348369176654
30
0
10
1.0495535132163665
20
-5.1635301352842848
30
0
10
1.0175001058171353
20
-5.0963183700308079
30
0
0
ARC
5
163
100
AcDbEntity
8
0
100
AcDbCircle
10
-2.996464904582183
20
3.3585797434622351
30
0
40
10.79000000000015
100
AcDbArc
50
298.42315308195288
51
301.5768469180511
0
SPLINE
5
164
100
AcDbEntity
8
0
100
AcDbSpline
70
1064
71
3
72
16
73
12
74
0
42
0.000000001
43
0.0000000001
44
0.0000000001
40
-0.26143439415053521
40
-0.26143439415053521
40
-0.26143439415053521
40
-0.26143439415053521
40
-0.25940044849610866
40
-0.25940044849610866
40
-0.25561558216687369
40
-0.25561558216687369
40
-0.24199493170770797
40
-0.24199493170770797
40
-0.19345101819590232
40
-0.19345101819590232
40
0
40
0
40
0
40
0
10
2.3187091429129052
20
-4.345064982191591
30
0
10
2.3197736916633329
20
-4.34661371075061
30
0
10
2.3208273160763264
20
-4.3481684226679862
30
0
10
2.3238141721946262
20
-4.3526387915128026
30
0
10
2.3257174234648095
20
-4.3555643215630022
30
0
10
2.3343266203345063
20
-4.3691471647375408
30
0
10
2.3405024051699321
20
-4.379893382189632
30
0
10
2.3675936763758036
20
-4.4304347045798007
30
0
10
2.3976819783989369
20
-4.4963371242248007
30
0
10
2.5061891395410956
20
-4.7635568220667635
30
0
10
2.6341155289814759
20
-5.1892964005668141
30
0
10
2.6536288491869513
20
-5.8338378152446513
30
0
0
LINE
5
165
100
AcDbEntity
8
0
100
AcDbLine
10
2.3187091429129052
20
-4.345064982191591
30
0
11
2.1222192287219648
21
-4.0592072029735746
31
0
0
ARC
5
166
100
AcDbEntity
8
0
100
AcDbCircle
10
2.204628442057647
20
-4.0025616245283517
30
0
40
0.09999999999999995
100
AcDbArc
50
125.24352632078971
51
214.5034447671969
0
ARC
5
167
100
AcDbEntity
8
0
100
AcDbCircle
10
-2.996464904582183
20
3.3585797434622351
30
0
40
8.9132000000001899
100
AcDbArc
50
305.24352632078995
51
309.75647367921454
0
ARC
5
168
100
AcDbEntity
8
0
100
AcDbCircle
10
2.7677096402589259
20
-3.5704942247249809
30
0
40
0.099999999999999742
100
AcDbArc
50
40.496555232803516
51
129.75647367920726
0
LINE
5
169
100
AcDbEntity
8
0
100
AcDbLine
10
2.843754141327441
20
-3.5055539917623517
30
1.5407439555097785e-34
11
3.0690162209565877
21
-3.7693341119370376
31
0
0
SPLINE
5
170
100
AcDbEntity
8
0
100
AcDbSpline
70
1064
71
3
72
10
73
6
74
0
42
0.000000001
43
0.0000000001
44
0.0000000001
40
-0.11573552723447655
40
-0.11573552723447655
40
-0.11573552723447655
40
-0.11573552723447655
40
-0.022339109386831191
40
-0.022339109386831191
40
0
40
0
40
0
40
0
10
4.4203767513162164
20
-4.4781644689856535
30
0
10
3.8020850015490493
20
-4.2922670587335112
30
0
10
3.4272711360828847
20
-4.0593696497656557
30
0
10
3.2035152018787025
20
-3.8917235316078251
30
0
10
3.1173731198818477
20
-3.8259596595249428
30
0
10
3.0690162209565877
20
-3.7693341119370376
30
0
0
ARC
5
171
100
AcDbEntity
8
0
100
AcDbCircle
10
-2.996464904582183
20
3.3585797434622351
30
0
40
10.790000000000239
100
AcDbArc
50
313.42315308195253
51
316.57684691805065
0
SPLINE
5
172
100
AcDbEntity
8
0
100
AcDbSpline
70
1064
71
3
72
16
73
12
74
0
42
0.000000001
43
0.0000000001
44
0.0000000001
40
-0.26143439399123702
40
-0.26143439399123702
40
-0.26143439399123702
40
-0.26143439399123702
40
-0.25940044834509385
40
-0.25940044834509385
40
-0.2556155820271972
40
-0.2556155820271972
40
-0.24199493160372346
40
-0.24199493160372346
40
-0.19345101820845337
40
-0.19345101820845337
40
0
40
0
40
0
40
0
10
4.1314489508175418
20
-2.7069013820760817
30
0
10
4.1328780663936513
20
-2.7081218134963554
30
0
10
4.1342981784771791
20
-2.7093508518235203
30
0
10
4.1383402765337536
20
-2.7128958412924535
30
0
10
4.1409358589824734
20
-2.7152290886460957
30
0
10
4.1527672030825853
20
-2.7261208835491484
30
0
10
4.1615138788929258
20
-2.7349025217875873
30
0
10
4.2007630942224798
20
-2.7767099534394206
30
0
10
4.2468829635188197
20
-2.8325793769739156
30
0
10
4.4208543798780129
20
-3.0626100646008565
30
0
10
4.6546112944348987
20
-3.4407331327478392
30
0
10
4.840279307866159
20
-4.0582619124357118
30
0
0
LINE
5
173
100
AcDbEntity
8
0
100
AcDbLine
10
4.1314489508175418
20
-2.7069013820760817
30
0
11
3.8676688306428568
21
-2.4816393024469368
31
0
0
ARC
5
174
100
AcDbEntity
8
0
100
AcDbCircle
10
3.9326090636054847
20
-2.4055948013784203
30
0
40
0.099999999999999881
100
AcDbArc
50
140.2435263207957
51
229.50344476719758
0
ARC
5
175
100
AcDbEntity
8
0
100
AcDbCircle
10
-2.996464904582183
20
3.3585797434622351
30
0
40
8.9132000000002751
100
AcDbArc
50
320.2435263207895
51
324.75647367921403
0
ARC
5
176
100
AcDbEntity
8
0
100
AcDbCircle
10
4.3646764634088537
20
-1.842513603177145
30
0
40
0.099999999999999548
100
AcDbArc
50
55.496555232803665
51
144.75647367921746
0
LINE
5
177
100
AcDbEntity
8
0
100
AcDbLine
10
4.4213220418540757
20
-1.7601043898414623
30
-1.5407439555097918e-34
11
4.707179821072093
21
-1.9565943040324019
31
0
0
SPLINE
5
178
100
AcDbEntity
8
0
100
AcDbSpline
70
1064
71
3
72
10
73
6
74
0
42
0.000000001
43
0.0000000001
44
0.0000000001
40
-0.11573552722991974
40
-0.11573552722991974
40
-0.11573552722991974
40
-0.11573552722991974
40
-0.022339109387379683
40
-0.022339109387379683
40
0
40
0
40
0
40
0
10
6.1959526541251524
20
-2.2915140103064466
30
0
10
5.5506148944901241
20
-2.2719765809686598
30
0
10
5.1282942168646528
20
-2.1440239254993818
30
0
10
4.8687725730910412
20
-2.0400025075499792
30
0
10
4.7685447687798845
20
-1.9987746964723752
30
0
10
4.707179821072093
20
-1.9565943040324019
30
0
0
ARC
5
179
100
AcDbEntity
8
0
100
AcDbCircle
10
-2.996464904582183
20
3.3585797434622351
30
0
40
10.790000000000315
100
AcDbArc
50
328.42315308195214
51
331.57684691805059
0
SPLINE
5
180
100
AcDbEntity
8
0
100
AcDbSpline
70
1064
71
3
72
16
73
12
74
0
42
0.000000001
43
0.0000000001
44
0.0000000001
40
-0.26143439397563617
40
-0.26143439397563617
40
-0.26143439397563617
40
-0.26143439397563617
40
-0.25940044832846337
40
-0.25940044832846337
40
-0.25561558201112333
40
-0.25561558201112333
40
-0.24199493159194158
40
-0.24199493159194158
40
-0.19345101821116262
40
-0.19345101821116262
40
0
40
0
40
0
40
0
10
5.458433208911309
20
-0.65538526693663057
30
0
10
5.4601294994507166
20
-0.65619423083635886
30
0
10
5.4618193209155264
20
-0.65701383864509522
30
0
10
5.4666411986119705
20
-0.65939186356886281
30
0
10
5.469752227586131
20
-0.66097382127636328
30
0
10
5.4839994323682344
20
-0.66843231008573201
30
0
10
5.4947209276502491
20
-0.67465091497601326
30
0
10
5.5434533179413092
20
-0.70487534850989353
30
0
10
5.6024617616456052
20
-0.74690436706862207
30
0
10
5.8300415686560374
20
-0.92406983322477487
30
0
10
6.1536988609232406
20
-1.2288079288450864
30
0
10
6.4928685992991841
20
-1.7772405076876863
30
0
0
LINE
5
181
100
AcDbEntity
8
0
100
AcDbLine
10
5.458433208911309
20
-0.65538526693663057
30
0
11
5.1453390620255206
21
-0.50607012535989537
31
0
0
ARC
5
182
100
AcDbEntity
8
0
100
AcDbCircle
10
5.1883847450575011
20
-0.41580900874642668
30
0
40
0.10000000000000026
100
AcDbArc
50
155.24352632078907
51
244.50344476719707
0
ARC
5
183
100
AcDbEntity
8
0
100
AcDbCircle
10
-2.996464904582183
20
3.3585797434622351
30
0
40
8.9132000000003391
100
AcDbArc
50
335.24352632078904
51
339.75647367921351
0
ARC
5
184
100
AcDbEntity
8
0
100
AcDbCircle
10
5.4599936671915046
20
0.23991293473101916
30
0
40
0.10000000000000003
100
AcDbArc
50
70.496555232803473
51
159.75647367921715
0
LINE
5
185
100
AcDbEntity
8
0
100
AcDbLine
10
5.4933800204536372
20
0.33417507673859342
30
-1.5407439555097896e-34
11
5.8203527640091348
21
0.21836583146857602
31
0
0
SPLINE
5
186
100
AcDbEntity
8
0
100
AcDbSpline
70
1064
71
3
72
10
73
6
74
0
42
0.000000001
43
0.0000000001
44
0.0000000001
40
-0.1157355272391556
40
-0.1157355272391556
40
-0.1157355272391556
40
-0.1157355272391556
40
-0.022339109387374014
40
-0.022339109387374014
40
0
40
0
40
0
40
0
10
7.3450804914964944
20
0.28018100047069505
30
0
10
6.7166754239951949
20
0.13202700533348044
30
0
10
6.2756283903994348
20
0.14631514527738365
30
0
10
5.9980270081121301
20
0.17962297533981653
30
0
10
5.8905438407223158
20
0.19350511821630723
30
0
10
5.820352764009133
20
0.21836583146857602
30
0
0
ARC
5
187
100
AcDbEntity
8
0
100
AcDbCircle
10
-2.996464904582183
20
3.3585797434622351
30
0
40
10.79000000000037
100
AcDbArc
50
343.42315308195168
51
346.57684691805008
0
SPLINE
5
188
100
AcDbEntity
8
0
100
AcDbSpline
70
1064
71
3
72
16
73
12
74
0
42
0.000000001
43
0.0000000001
44
0.0000000001
40
-0.26143439412329605
40
-0.26143439412329605
40
-0.26143439412329605
40
-0.26143439412329605
40
-0.25940044847008015
40
-0.25940044847008015
40
-0.25561558214254815
40
-0.25561558214254815
40
-0.2419949316881177
40
-0.2419949316881177
40
-0.19345101819475935
40
-0.19345101819475935
40
0
40
0
40
0
40
0
10
6.2092301329502924
20
1.6696759302706918
30
0
10
6.2110779990560356
20
1.6693335634448878
30
0
10
6.2129223713619108
20
1.6689792410727613
30
0
10
6.2181954257012091
20
1.6679302391640825
30
0
10
6.22160988971729
20
1.6672073789065891
30
0
10
6.2373020317209349
20
1.663690479877348
30
0
10
6.2492676942903591
20
1.6604586959810288
30
0
10
6.3041622276595088
20
1.6438770057708321
30
0
10
6.3720379178758435
20
1.6185526003403763
30
0
10
6.6377169277640382
20
1.506325889374265
30
0
10
7.0292178881955607
20
1.2957401638628587
30
0
10
7.4987754943078038
20
0.85377855983194939
30
0
0
LINE
5
189
100
AcDbEntity
8
0
100
AcDbLine
10
6.2092301329502924
20
1.6696759302706918
30
0
11
5.8681588080511293
21
1.7328685536515012
31
0
0
ARC
5
190
100
AcDbEntity
8
0
100
AcDbCircle
10
5.8863764489901875
20
1.8311951398762629
30
0
40
0.1000000000000001
100
AcDbArc
50
170.24352632078089
51
259.50344476719687
0
ARC
5
191
100
AcDbEntity
8
0
100
AcDbCircle
10
-2.996464904582183
20
3.3585797434622351
30
0
40
8.9132000000003799
100
AcDbArc
50
350.24352632078853
51
354.75647367921283
0
ARC
5
192
100
AcDbEntity
8
0
100
AcDbCircle
10
5.9790171942663566
20
2.5348714618136361
30
0
40
0.10000000000000031
100
AcDbArc
50
85.49655523280299
51
174.75647367922122
0
LINE
5
193
100
AcDbEntity
8
0
100
AcDbLine
10
5.986869097544143
20
2.6345627232908404
30
3.0814879110195887e-34
11
6.3326741533118174
21
2.6073263556230666
31
0
0
SPLINE
5
194
100
AcDbEntity
8
0
100
AcDbSpline
70
1064
71
3
72
10
73
6
74
0
42
0.000000001
43
0.0000000001
44
0.0000000001
40
-0.11573552720669905
40
-0.11573552720669905
40
-0.11573552720669905
40
-0.11573552720669905
40
-0.022339109388147909
40
-0.022339109388147909
40
0
40
0
40
0
40
0
10
7.7894491003369186
20
3.0616637982882509
30
0
10
7.2208014918367391
20
2.7559148286201496
30
0
10
6.7910847287508176
20
2.6555647399176219
30
0
10
6.5143216833873074
20
2.6158891085016434
30
0
10
6.4069079531512063
20
2.6014795380821454
30
0
10
6.3326741533118174
20
2.6073263556230666
30
0
0
ARC
5
195
100
AcDbEntity
8
0
100
AcDbCircle
10
-2.996464904582183
20
3.3585797434622351
30
0
40
10.790000000000397
100
AcDbArc
50
-1.5768469180486364
51
1.5768469180493108
0
SPLINE
5
196
100
AcDbEntity
8
0
100
AcDbSpline
70
1064
71
3
72
16
73
12
74
0
42
0.000000001
43
0.0000000001
44
0.0000000001
40
-0.2614343940198724
40
-0.2614343940198724
40
-0.2614343940198724
40
-0.2614343940198724
40
-0.25940044837107906
40
-0.25940044837107906
40
-0.25561558205074553
40
-0.25561558205074553
40
-0.24199493162103994
40
-0.24199493162103994
40
-0.19345101820603333
40
-0.19345101820603333
40
0
40
0
40
0
40
0
10
6.3326741533118174
20
4.1098331313014995
30
0
10
6.3345476659613205
20
4.1099806932833189
30
0
10
6.3364208981823928
20
4.1101158028322367
30
0
10
6.3417857792235495
20
4.1104673116856496
30
0
10
6.3452709882009355
20
4.1106528106103193
30
0
10
6.3613386738803186
20
4.1113171722186017
30
0
10
6.3737330636066325
20
4.1112924500484613
30
0
10
6.4310487683465567
20
4.1094835179387452
30
0
10
6.5031660889183325
20
4.1025895420238214
30
0
10
6.7888387162531147
20
4.0629496511584335
30
0
10
7.2215032013022062
20
3.960867364980984
30
0
10
7.7894491003369186
20
3.6554956886363148
30
0
0
LINE
5
197
100
AcDbEntity
8
0
100
AcDbLine
10
6.3326741533118174
20
4.1098331313014995
30
0
11
5.9868690975441394
21
4.0825967636337275
31
0
0
ARC
5
198
100
AcDbEntity
8
0
100
AcDbCircle
10
5.9790171942663539
20
4.1822880251109309
30
0
40
0.10000000000000039
100
AcDbArc
50
185.24352632078788
51
274.50344476719653
0
ARC
5
199
100
AcDbEntity
8
0
100
AcDbCircle
10
-2.996464904582183
20
3.3585797434622351
30
0
40
8.9132000000003977
100
AcDbArc
50
5.2435263207876979
51
9.7564736792121334
0
ARC
5
200
100
AcDbEntity
8
0
100
AcDbCircle
10
5.8863764489901849
20
4.8859643470483087
30
0
40
0.10000000000000066
100
AcDbArc
50
100.49655523280407
51
189.75647367921678
0
LINE
5
201
100
AcDbEntity
8
0
100
AcDbLine
10
5.8681588080511249
20
4.9842909332730709
30
3.0814879110195891e-34
11
6.2092301329502906
21
5.0474835566538783
31
0
0
SPLINE
5
202
100
AcDbEntity
8
0
100
AcDbSpline
70
1064
71
3
72
10
73
6
74
0
42
0.000000001
43
0.0000000001
44
0.0000000001
40
-0.11573552723307046
40
-0.11573552723307046
40
-0.11573552723307046
40
-0.11573552723307046
40
-0.022339109387612719
40
-0.022339109387612719
40
0
40
0
40
0
40
0
10
7.4987754943078011
20
5.8633809270926225
30
0
10
7.0286377396401463
20
5.4208732699623949
30
0
10
6.6395357342642161
20
5.2127236452664283
30
0
10
6.3824719700057493
20
5.1027683810821483
30
0
10
6.2824477451298062
20
5.0610490857779444
30
0
10
6.2092301329502924
20
5.0474835566538792
30
0
0
ARC
5
203
100
AcDbEntity
8
0
100
AcDbCircle
10
-2.996464904582183
20
3.3585797434622351
30
0
40
10.790000000000397
100
AcDbArc
50
13.42315308195059
51
16.57684691804873
0
SPLINE
5
204
100
AcDbEntity
8
0
100
AcDbSpline
70
1064
71
3
72
16
73
12
74
0
42
0.000000001
43
0.0000000001
44
0.0000000001
40
-0.26143439401333946
40
-0.26143439401333946
40
-0.26143439401333946
40
-0.26143439401333946
40
-0.259400448365117
40
-0.259400448365117
40
-0.25561558204548507
40
-0.25561558204548507
40
-0.24199493161814933
40
-0.24199493161814933
40
-0.19345101820920013
40
-0.19345101820920013
40
0
40
0
40
0
40
0
10
5.8203527640091313
20
6.4987936554559944
30
0
10
5.8221242464117573
20
6.4994210901400802
30
0
10
5.8238986808681004
20
6.5000364241174058
30
0
10
5.8289897808345792
20
6.5017644889851329
30
0
10
5.8323082235411601
20
6.5028457056466937
30
0
10
5.8476564666704256
20
6.507646052746682
30
0
10
5.8596349263765042
20
6.5108300770776539
30
0
10
5.9154658319213649
20
6.5239171788059007
30
0
10
5.9869101066487795
20
6.5359234454692512
30
0
10
6.2731082339472533
20
6.5715717677494787
30
0
10
6.7174508740007361
20
6.5849496599967221
30
0
10
7.3450804914964918
20
6.436978486453877
30
0
0
LINE
5
205
100
AcDbEntity
8
0
100
AcDbLine
10
5.8203527640091313
20
6.4987936554559944
30
0
11
5.4933800204536363
21
6.3829844101859745
31
0
0
ARC
5
206
100
AcDbEntity
8
0
100
AcDbCircle
10
5.4599936671915028
20
6.4772465521935487
30
0
40
0.099999999999999797
100
AcDbArc
50
200.24352632080584
51
289.50344476719698
0
ARC
5
207
100
AcDbEntity
8
0
100
AcDbCircle
10
-2.996464904582183
20
3.3585797434622351
30
0
40
8.9132000000003888
100
AcDbArc
50
20.243526320786881
51
24.756473679211428
0
ARC
5
208
100
AcDbEntity
8
0
100
AcDbCircle
10
5.1883847450574994
20
7.1329684956709984
30
0
40
0.10000000000000006
100
AcDbArc
50
115.49655523280286
51
204.75647367922284
0
LINE
5
209
100
AcDbEntity
8
0
100
AcDbLine
10
5.1453390620255188
20
7.2232296122844675
30
0
11
5.4584332089113055
21
7.3725447538612006
31
0
0
SPLINE
5
210
100
AcDbEntity
8
0
100
AcDbSpline
70
1064
71
3
72
10
73
6
74
0
42
0.000000001
43
0.0000000001
44
0.0000000001
40
-0.11573552722441591
40
-0.11573552722441591
40
-0.11573552722441591
40
-0.11573552722441591
40
-0.022339109388298757
40
-0.022339109388298757
40
0
40
0
40
0
40
0
10
6.4928685992991824
20
8.4943999946122588
30
0
10
6.1532798094544621
20
7.945289815583612
30
0
10
5.8313092204758332
20
7.6435257078312446
30
0
10
5.611463208053566
20
7.4707840804193673
30
0
10
5.5256449741625779
20
7.4045981612593899
30
0
10
5.4584332089113063
20
7.3725447538612006
30
0
0
ARC
5
211
100
AcDbEntity
8
0
100
AcDbCircle
10
-2.996464904582183
20
3.3585797434622351
30
0
40
10.790000000000376
100
AcDbArc
50
28.423153081950051
51
31.576846918048297
0
SPLINE
5
212
100
AcDbEntity
8
0
100
AcDbSpline
70
1064
71
3
72
16
73
12
74
0
42
0.000000001
43
0.0000000001
44
0.0000000001
40
-0.26143439415855774
40
-0.26143439415855774
40
-0.26143439415855774
40
-0.26143439415855774
40
-0.25940044850297278
40
-0.25940044850297278
40
-0.25561558217202801
40
-0.25561558217202801
40
-0.24199493170747272
40
-0.24199493170747272
40
-0.1934510181864319
40
-0.1934510181864319
40
0
40
0
40
0
40
0
10
4.7071798210720903
20
8.6737537909569706
30
0
10
4.70872854963131
20
8.6748183397075387
30
0
10
4.7102832615488639
20
8.6758719641206472
30
0
10
4.7147536303939246
20
8.6788588202390997
30
0
10
4.7176791604441952
20
8.6807620715093279
30
0
10
4.7312620036191895
20
8.6893712683792756
30
0
10
4.7420082210720391
20
8.6955470532150585
30
0
10
4.7925495434505843
20
8.7226383244145271
30
0
10
4.8584519630891263
20
8.7527266264365178
30
0
10
5.1256716609732811
20
8.8612337875954097
30
0
10
5.5514112394788668
20
8.9891601770264966
30
0
10
6.1959526541251497
20
9.0086734972310172
30
0
0
LINE
5
213
100
AcDbEntity
8
0
100
AcDbLine
10
4.7071798210720903
20
8.6737537909569706
30
0
11
4.421322041854074
21
8.4772638767660311
31
0
0
ARC
5
214
100
AcDbEntity
8
0
100
AcDbCircle
10
4.3646764634088502
20
8.5596730901017146
30
0
40
0.099999999999999797
100
AcDbArc
50
215.24352632078688
51
304.50344476719687
0
ARC
5
215
100
AcDbEntity
8
0
100
AcDbCircle
10
-2.996464904582183
20
3.3585797434622351
30
0
40
8.9132000000003515
100
AcDbArc
50
35.243526320786486
51
39.756473679210941
0
ARC
5
216
100
AcDbEntity
8
0
100
AcDbCircle
10
3.9326090636054789
20
9.1227542883029891
30
0
40
0.10000000000000059
100
AcDbArc
50
130.49655523280254
51
219.75647367921133
0
LINE
5
217
100
AcDbEntity
8
0
100
AcDbLine
10
3.8676688306428497
20
9.1987987893715069
30
3.0814879110195844e-34
11
4.1314489508175374
21
9.42406086900065
31
0
0
SPLINE
5
218
100
AcDbEntity
8
0
100
AcDbSpline
70
1064
71
3
72
10
73
6
74
0
42
0.000000001
43
0.0000000001
44
0.0000000001
40
-0.1157355272167504
40
-0.1157355272167504
40
-0.1157355272167504
40
-0.1157355272167504
40
-0.02233910938820316
40
-0.02233910938820316
40
0
40
0
40
0
40
0
10
4.8402793078661546
20
10.77542139936028
30
0
10
4.6543818976248437
20
10.157129649628981
30
0
10
4.4214844886483879
20
9.7823157841343935
30
0
10
4.2538383704938401
20
9.5585598499290612
30
0
10
4.1880744984089029
20
9.4724177679288992
30
0
10
4.1314489508175383
20
9.42406086900065
30
0
0
ARC
5
219
100
AcDbEntity
8
0
100
AcDbCircle
10
-2.996464904582183
20
3.3585797434622351
30
0
40
10.790000000000322
100
AcDbArc
50
43.423153081949543
51
46.576846918047842
0
SPLINE
5
220
100
AcDbEntity
8
0
100
AcDbSpline
70
1064
71
3
72
16
73
12
74
0
42
0.000000001
43
0.0000000001
44
0.0000000001
40
-0.26143439415776037
40
-0.26143439415776037
40
-0.26143439415776037
40
-0.26143439415776037
40
-0.25940044850461685
40
-0.25940044850461685
40
-0.25561558217519764
40
-0.25561558217519764
40
-0.24199493171139455
40
-0.24199493171139455
40
-0.19345101818482346
40
-0.19345101818482346
40
0
40
0
40
0
40
0
10
3.0690162209565819
20
10.486493598861607
30
0
10
3.0702366523772397
20
10.487922714438165
30
0
10
3.0714656907047888
20
10.489342826522135
30
0
10
3.0750106801746524
20
10.493384924579733
30
0
10
3.0773439275285988
20
10.495980507028753
30
0
10
3.0882357224318469
20
10.507811851128901
30
0
10
3.0970173606701525
20
10.516558526939001
30
0
10
3.1388247923145931
20
10.55580774226129
30
0
10
3.1946942158675862
20
10.601927611579471
30
0
10
3.4247249034972391
20
10.775899027907677
30
0
10
3.802847971703728
20
11.009655942501784
30
0
10
4.420376751316212
20
11.195323955910222
30
0
0
LINE
5
221
100
AcDbEntity
8
0
100
AcDbLine
10
3.0690162209565819
20
10.486493598861607
30
0
11
2.8437541413274383
21
10.222713478686918
31
0
0
ARC
5
222
100
AcDbEntity
8
0
100
AcDbCircle
10
2.7677096402589236
20
10.287653711649547
30
0
40
0.099999999999999645
100
AcDbArc
50
230.24352632077947
51
319.50344476719653
0
ARC
5
223
100
AcDbEntity
8
0
100
AcDbCircle
10
-2.996464904582183
20
3.3585797434622351
30
0
40
8.9132000000002911
100
AcDbArc
50
50.243526320785989
51
54.756473679210472
0
ARC
5
224
100
AcDbEntity
8
0
100
AcDbCircle
10
2.2046284420576416
20
10.71972111145292
30
0
40
0.099999999999999672
100
AcDbArc
50
145.49655523280509
51
234.75647367920811
0
LINE
5
225
100
AcDbEntity
8
0
100
AcDbLine
10
2.1222192287219572
20
10.77636668989814
30
-2.595396026627844e-49
11
2.3187091429129008
21
11.06222446911616
31
-4.8148248609680896e-34
0
SPLINE
5
226
100
AcDbEntity
8
0
100
AcDbSpline
70
1064
71
3
72
10
73
6
74
0
42
0.000000001
43
0.0000000001
44
0.0000000001
40
-0.11573552721670835
40
-0.11573552721670835
40
-0.11573552721670835
40
-0.11573552721670835
40
-0.022339109387840519
40
-0.022339109387840519
40
0
40
0
40
0
40
0
10
2.653628849186946
20
12.55099730216922
30
0
10
2.6340914198507686
20
11.905659542587186
30
0
10
2.506138764398798
20
11.483338864962382
30
0
10
2.4021173464304626
20
11.223817221133519
30
0
10
2.3608895353537442
20
11.123589416825217
30
0
10
2.3187091429129008
20
11.06222446911616
30
0
0
ARC
5
227
100
AcDbEntity
8
0
100
AcDbCircle
10
-2.996464904582183
20
3.3585797434622351
30
0
40
10.790000000000248
100
AcDbArc
50
58.42315308194916
51
61.576846918047451
0
SPLINE
5
228
100
AcDbEntity
8
0
100
AcDbSpline
70
1064
71
3
72
16
73
12
74
0
42
0.000000001
43
0.0000000001
44
0.0000000001
40
-0.26143439410900671
40
-0.26143439410900671
40
-0.26143439410900671
40
-0.26143439410900671
40
-0.25940044845976157
40
-0.25940044845976157
40
-0.25561558213468916
40
-0.25561558213468916
40
-0.24199493168319711
40
-0.24199493168319711
40
-0.19345101819126367
40
-0.19345101819126367
40
0
40
0
40
0
40
0
10
1.0175001058171291
20
11.813477856955377
30
0
10
1.0183090697160608
20
11.815174147493114
30
0
10
1.0191286775240174
20
11.816863968956334
30
0
10
1.0215067024461573
20
11.821685846649654
30
0
10
1.0230886601531415
20
11.824796875622937
30
0
10
1.0305471489618947
20
11.839044080404593
30
0
10
1.0367657538521016
20
11.849765575686881
30
0
10
1.066990187383098
20
11.898497965974784
30
0
10
1.1090192059563455
20
11.957506409706147
30
0
10
1.2861846721160672
20
12.185086216685292
30
0
10
1.59092276778193
20
12.508743509002308
30
0
10
2.1393553465681849
20
12.847913247343252
30
0
0
LINE
5
229
100
AcDbEntity
8
0
100
AcDbLine
10
1.0175001058171291
20
11.813477856955377
30
0
11
0.86818496424039449
21
11.500383710069588
31
4.8148248609680896e-34
0
ARC
5
230
100
AcDbEntity
8
0
100
AcDbCircle
10
0.77792384762692579
20
11.543429393101569
30
0
40
0.099999999999999895
100
AcDbArc
50
245.24352632078808
51
334.50344476719704
0
ARC
5
231
100
AcDbEntity
8
0
100
AcDbCircle
10
-2.996464904582183
20
3.3585797434622351
30
0
40
8.9132000000002094
100
AcDbArc
50
65.243526320785492
51
69.756473679210004
0
ARC
5
232
100
AcDbEntity
8
0
100
AcDbCircle
10
0.12220190414947818
20
11.815038315235572
30
0
40
0.10000000000000006
100
AcDbArc
50
160.49655523280254
51
249.75647367921539
0
LINE
5
233
100
AcDbEntity
8
0
100
AcDbLine
10
0.027939762141903895
20
11.848424668497707
30
-4.1761241129548904e-49
11
0.14374900741192354
21
12.175397412053201
31
-9.6296497219361793e-34
0
SPLINE
5
234
100
AcDbEntity
8
0
100
AcDbSpline
70
1064
71
3
72
10
73
6
74
0
42
0.000000001
43
0.0000000001
44
0.0000000001
40
-0.11573552724314738
40
-0.11573552724314738
40
-0.11573552724314738
40
-0.11573552724314738
40
-0.022339109386991799
40
-0.022339109386991799
40
0
40
0
40
0
40
0
10
0.08193383840980506
20
13.70012513954056
30
0
10
0.23008783354765194
20
13.071720072036578
30
0
10
0.21579969360321249
20
12.63067303843814
30
0
10
0.18249186354029223
20
12.353071656154418
30
0
10
0.168609720663776
20
12.245588488765179
30
0
10
0.14374900741192354
20
12.175397412053201
30
0
0
ARC
5
235
100
AcDbEntity
8
0
100
AcDbCircle
10
-2.996464904582183
20
3.3585797434622351
30
0
40
10.790000000000159
100
AcDbArc
50
73.423153081948868
51
76.576846918047224
0
SPLINE
5
236
100
AcDbEntity
8
0
100
AcDbSpline
70
1064
71
3
72
16
73
12
74
0
42
0.000000001
43
0.0000000001
44
0.0000000001
40
-0.26143439411432245
40
-0.26143439411432245
40
-0.26143439411432245
40
-0.26143439411432245
40
-0.25940044846243682
40
-0.25940044846243682
40
-0.25561558213570323
40
-0.25561558213570323
40
-0.24199493168224986
40
-0.24199493168224986
40
-0.193451018191098
40
-0.193451018191098
40
0
40
0
40
0
40
0
10
-1.3075610913901912
20
12.56427478099436
30
0
10
-1.3072187245645153
20
12.566122647099412
30
0
10
-1.3068644021925133
20
12.567967019404646
30
0
10
-1.3058154002841402
20
12.573240073742568
30
0
10
-1.305092540026749
20
12.57665453775828
30
0
10
-1.3015756409976706
20
12.5923466797618
30
0
10
-1.2983438571014136
20
12.604312342331278
30
0
10
-1.281762166891053
20
12.659206875701965
30
0
10
-1.256437761460659
20
12.727082565917929
30
0
10
-1.1442110504903926
20
12.992761575816623
30
0
10
-0.9336253249739932
20
13.384262536248512
30
0
10
-0.49166372095144906
20
13.85382014235187
30
0
0
LINE
5
237
100
AcDbEntity
8
0
100
AcDbLine
10
-1.3075610913901912
20
12.56427478099436
30
0
11
-1.3707537147709994
21
12.223203456095195
31
0
0
ARC
5
238
100
AcDbEntity
8
0
100
AcDbCircle
10
-1.4690803009957611
20
12.241421097034255
30
0
40
0.099999999999999478
100
AcDbArc
50
260.2435263207791
51
349.50344476719596
0
ARC
5
239
100
AcDbEntity
8
0
100
AcDbCircle
10
-2.996464904582183
20
3.3585797434622351
30
0
40
8.9132000000001135
100
AcDbArc
50
80.243526320785307
51
84.756473679209734
0
ARC
5
240
100
AcDbEntity
8
0
100
AcDbCircle
10
-2.1727566229331359
20
12.334061842310422
30
0
40
0.10000000000000039
100
AcDbArc
50
175.49655523280461
51
264.75647367921908
0
LINE
5
241
100
AcDbEntity
8
0
100
AcDbLine
10
-2.2724478844103406
20
12.341913745588206
30
0
11
-2.2452115167425681
21
12.687718801355885
31
0
0
SPLINE
5
242
100
AcDbEntity
8
0
100
AcDbSpline
70
1064
71
3
72
10
73
6
74
0
42
0.000000001
43
0.0000000001
44
0.0000000001
40
-0.11573552720901006
40
-0.11573552720901006
40
-0.11573552720901006
40
-0.11573552720901006
40
-0.022339109388061475
40
-0.022339109388061475
40
0
40
0
40
0
40
0
10
-2.6995489594077524
20
14.144493748380986
30
0
10
-2.3937999897389433
20
13.575846139879491
30
0
10
-2.2934499010365026
20
13.146129376792505
30
0
10
-2.2537742696211569
20
12.869366331430992
30
0
10
-2.23936469920167
20
12.761952601194988
30
0
10
-2.2452115167425681
20
12.687718801355885
30
0
0
ARC
5
243
100
AcDbEntity
8
0
100
AcDbCircle
10
-2.996464904582183
20
3.3585797434622351
30
0
40
10.790000000000058
100
AcDbArc
50
88.423153081948712
51
91.576846918047039
0
SPLINE
5
244
100
AcDbEntity
8
0
100
AcDbSpline
70
1064
71
3
72
16
73
12
74
0
42
0.000000001
43
0.0000000001
44
0.0000000001
40
-0.26143439401977969
40
-0.26143439401977969
40
-0.26143439401977969
40
-0.26143439401977969
40
-0.25940044837122472
40
-0.25940044837122472
40
-0.25561558205112306
40
-0.25561558205112306
40
-0.24199493162193769
40
-0.24199493162193769
40
-0.19345101820760294
40
-0.19345101820760294
40
0
40
0
40
0
40
0
10
-3.7477182924210029
20
12.687718801355885
30
0
10
-3.7478658544028098
20
12.689592314005235
30
0
10
-3.7480009639517178
20
12.691465546226159
30
0
10
-3.7483524728051218
20
12.696830427267098
30
0
10
-3.7485379717297929
20
12.700315636244412
30
0
10
-3.7492023333380953
20
12.716383321923708
30
0
10
-3.7491776111679731
20
12.728777711650011
30
0
10
-3.7473686790582708
20
12.78609341639128
30
0
10
-3.740474703143053
20
12.858210736964285
30
0
10
-3.700834812278603
20
13.143883364292659
30
0
10
-3.598752526102964
20
13.576547849341667
30
0
10
-3.2933808497558177
20
14.144493748380986
30
0
0
LINE
5
245
100
AcDbEntity
8
0
100
AcDbLine
10
-3.7477182924210029
20
12.687718801355885
30
0
11
-3.7204819247532295
21
12.341913745588206
31
4.8148248609680896e-34
0
ARC
5
246
100
AcDbEntity
8
0
100
AcDbCircle
10
-3.8201731862304342
20
12.334061842310422
30
0
40
0.10000000000000037
100
AcDbArc
50
-84.756473679212547
51
4.5034447671954316
0
ARC
5
247
100
AcDbEntity
8
0
100
AcDbCircle
10
-2.996464904582183
20
3.3585797434622351
30
0
40
8.9132000000000087
100
AcDbArc
50
95.243526320785094
51
99.756473679209705
0
ARC
5
248
100
AcDbEntity
8
0
100
AcDbCircle
10
-4.5238495081678112
20
12.241421097034253
30
0
40
0.10000000000000012
100
AcDbArc
50
190.49655523280416
51
279.75647367921817
0
LINE
5
249
100
AcDbEntity
8
0
100
AcDbLine
10
-4.6221760943925725
20
12.223203456095193
30
0
11
-4.6853687177733816
21
12.56427478099436
31
0
0
SPLINE
5
250
100
AcDbEntity
8
0
100
AcDbSpline
70
1064
71
3
72
10
73
6
74
0
42
0.000000001
43
0.0000000001
44
0.0000000001
40
-0.11573552723184638
40
-0.11573552723184638
40
-0.11573552723184638
40
-0.11573552723184638
40
-0.022339109387663588
40
-0.022339109387663588
40
0
40
0
40
0
40
0
10
-5.5012660882121258
20
13.85382014235187
30
0
10
-5.0587584310588216
20
13.383682387659697
30
0
10
-4.8506088063715485
20
12.994580382276105
30
0
10
-4.7406535422029794
20
12.737516618052577
30
0
10
-4.6989342468974771
20
12.637492393174041
30
0
10
-4.6853687177733816
20
12.56427478099436
30
0
0
ARC
5
251
100
AcDbEntity
8
0
100
AcDbCircle
10
-2.996464904582183
20
3.3585797434622351
30
0
40
10.789999999999955
100
AcDbArc
50
103.42315308194874
51
106.57684691804704
0
SPLINE
5
252
100
AcDbEntity
8
0
100
AcDbSpline
70
1064
71
3
72
16
73
12
74
0
42
0.000000001
43
0.0000000001
44
0.0000000001
40
-0.26143439401406898
40
-0.26143439401406898
40
-0.26143439401406898
40
-0.26143439401406898
40
-0.25940044836575915
40
-0.25940044836575915
40
-0.25561558204617629
40
-0.25561558204617629
40
-0.24199493161870766
40
-0.24199493161870766
40
-0.19345101820911842
40
-0.19345101820911842
40
0
40
0
40
0
40
0
10
-6.1366788165754969
20
12.175397412053197
30
0
10
-6.1373062512596146
20
12.177168894455917
30
0
10
-6.1379215852369775
20
12.178943328912366
30
0
10
-6.1396496501047828
20
12.184034428879084
30
0
10
-6.1407308667663738
20
12.18735287158578
30
0
10
-6.1455312138663665
20
12.202701114715113
30
0
10
-6.1487152381973695
20
12.21467957442144
30
0
10
-6.1618023399250887
20
12.270510479964219
30
0
10
-6.1738086065884854
20
12.341954754691011
30
0
10
-6.2094569288690629
20
12.628152881990683
30
0
10
-6.2228348211161624
20
13.07249552204507
30
0
10
-6.0748636475733795
20
13.70012513954056
30
0
0
LINE
5
253
100
AcDbEntity
8
0
100
AcDbLine
10
-6.1366788165754969
20
12.175397412053197
30
0
11
-6.0208695713054787
21
11.848424668497703
31
0
0
ARC
5
254
100
AcDbEntity
8
0
100
AcDbCircle
10
-6.1151317133130521
20
11.81503831523557
30
0
40
0.10000000000000099
100
AcDbArc
50
-69.756473679210416
51
19.503444767196697
0
ARC
5
255
100
AcDbEntity
8
0
100
AcDbCircle
10
-2.996464904582183
20
3.3585797434622351
30
0
40
8.9131999999999039
100
AcDbArc
50
110.24352632078516
51
114.75647367920985
0
ARC
5
256
100
AcDbEntity
8
0
100
AcDbCircle
10
-6.7708536567905
20
11.543429393101567
30
0
40
0.10000000000000053
100
AcDbArc
50
205.49655523280282
51
294.75647367921647
0
LINE
5
257
100
AcDbEntity
8
0
100
AcDbLine
10
-6.861114773403969
20
11.500383710069586
30
3.0814879110195861e-34
11
-7.010429914980703
21
11.813477856955375
31
0
0
SPLINE
5
258
100
AcDbEntity
8
0
100
AcDbSpline
70
1064
71
3
72
10
73
6
74
0
42
0.000000001
43
0.0000000001
44
0.0000000001
40
-0.11573552720960023
40
-0.11573552720960023
40
-0.11573552720960023
40
-0.11573552720960023
40
-0.022339109388660384
40
-0.022339109388660384
40
0
40
0
40
0
40
0
10
-8.1322851557317595
20
12.84791324734325
30
0
10
-7.5831749767235852
20
12.50832445751119
30
0
10
-7.2814108689709958
20
12.186353868542632
30
0
10
-7.1086692415382844
20
11.966507856097619
30
0
10
-7.0424833223794101
20
11.880689622207735
30
0
10
-7.010429914980703
20
11.813477856955375
30
0
0
ARC
5
259
100
AcDbEntity
8
0
100
AcDbCircle
10
-2.996464904582183
20
3.3585797434622351
30
0
40
10.789999999999853
100
AcDbArc
50
118.42315308194887
51
121.57684691804702
0
SPLINE
5
260
100
AcDbEntity
8
0
100
AcDbSpline
70
1064
71
3
72
16
73
12
74
0
42
0.000000001
43
0.0000000001
44
0.0000000001
40
-0.26143439413846681
40
-0.26143439413846681
40
-0.26143439413846681
40
-0.26143439413846681
40
-0.25940044848610216
40
-0.25940044848610216
40
-0.25561558215829205
40
-0.25561558215829205
40
-0.24199493170054293
40
-0.24199493170054293
40
-0.19345101819223609
40
-0.19345101819223609
40
0
40
0
40
0
40
0
10
-8.3116389520764731
20
11.062224469116158
30
0
10
-8.3127035008255721
20
11.063773197673243
30
0
10
-8.3137571252372204
20
11.065327909588603
30
0
10
-8.3167439813538788
20
11.069798278430818
30
0
10
-8.3186472326234622
20
11.072723808479958
30
0
10
-8.3272564294930547
20
11.086306651653661
30
0
10
-8.3334322143288038
20
11.097052869105815
30
0
10
-8.3605234855367723
20
11.14759419149819
30
0
10
-8.390611787560605
20
11.213496611145166
30
0
10
-8.4991189487078334
20
11.480716308997234
30
0
10
-8.6270453381454111
20
11.906455887503595
30
0
10
-8.6465586583505161
20
12.550997302169218
30
0
0
LINE
5
261
100
AcDbEntity
8
0
100
AcDbLine
10
-8.3116389520764731
20
11.062224469116158
30
0
11
-8.1151490378855318
21
10.776366689898143
31
0
0
ARC
5
262
100
AcDbEntity
8
0
100
AcDbCircle
10
-8.1975582512212135
20
10.719721111452918
30
0
40
0.099999999999998562
100
AcDbArc
50
-54.756473679220406
51
34.50344476719831
0
ARC
5
263
100
AcDbEntity
8
0
100
AcDbCircle
10
-2.996464904582183
20
3.3585797434622351
30
0
40
8.9131999999998097
100
AcDbArc
50
125.24352632078552
51
129.75647367921002
0
ARC
5
264
100
AcDbEntity
8
0
100
AcDbCircle
10
-8.7606394494224933
20
10.287653711649547
30
0
40
0.10000000000000059
100
AcDbArc
50
220.49655523280299
51
309.75647367922642
0
LINE
5
265
100
AcDbEntity
8
0
100
AcDbLine
10
-8.8366839504910093
20
10.222713478686918
30
5.6606014602620962e-50
11
-9.0619460301201507
21
10.486493598861607
31
-9.6296497219361793e-34
0
SPLINE
5
266
100
AcDbEntity
8
0
100
AcDbSpline
70
1064
71
3
72
10
73
6
74
0
42
0.000000001
43
0.0000000001
44
0.0000000001
40
-0.11573552723312235
40
-0.11573552723312235
40
-0.11573552723312235
40
-0.11573552723312235
40
-0.022339109387669292
40
-0.022339109387669292
40
0
40
0
40
0
40
0
10
-10.41330656047978
20
11.195323955910222
30
0
10
-9.795014810725565
20
11.00942654566202
30
0
10
-9.4202009452275988
20
10.776529136675459
30
0
10
-9.1964450110482687
20
10.608883018537039
30
0
10
-9.110302929047247
20
10.543119146451616
30
0
10
-9.0619460301201507
20
10.486493598861607
30
0
0
ARC
5
267
100
AcDbEntity
8
0
100
AcDbCircle
10
-2.996464904582183
20
3.3585797434622351
30
0
40
10.789999999999759
100
AcDbArc
50
133.4231530819491
51
136.57684691804758
0
SPLINE
5
268
100
AcDbEntity
8
0
100
AcDbSpline
70
1064
71
3
72
16
73
12
74
0
42
0.000000001
43
0.0000000001
44
0.0000000001
40
-0.26143439417584402
40
-0.26143439417584402
40
-0.26143439417584402
40
-0.26143439417584402
40
-0.25940044852102973
40
-0.25940044852102973
40
-0.25561558219033931
40
-0.25561558219033931
40
-0.24199493172384601
40
-0.24199493172384601
40
-0.19345101819030533
40
-0.19345101819030533
40
0
40
0
40
0
40
0
10
-10.124378759981106
20
9.42406086900065
30
0
10
-10.125807875558353
20
9.4252813004218936
30
0
10
-10.127227987642994
20
9.4265103387500293
30
0
10
-10.131270085701829
20
9.430055328221032
30
0
10
-10.133865668151206
20
9.4323885755753381
30
0
10
-10.14569701225167
20
9.4432803704790977
30
0
10
-10.154443688062036
20
9.4520620087178546
30
0
10
-10.193692903379867
20
9.493869440358143
30
0
10
-10.239812772699073
20
9.5497388639115943
30
0
10
-10.413784189018987
20
9.7797695515312437
30
0
10
-10.647541103616021
20
10.157892619730298
30
0
10
-10.833209117029723
20
10.77542139936028
30
0
0
LINE
5
269
100
AcDbEntity
8
0
100
AcDbLine
10
-10.124378759981106
20
9.42406086900065
30
0
11
-9.8605986398064172
21
9.1987987893715069
31
0
0
ARC
5
270
100
AcDbEntity
8
0
100
AcDbCircle
10
-9.9255388727690494
20
9.1227542883029891
30
0
40
0.10000000000000123
100
AcDbArc
50
-39.75647367920989
51
49.503444767196115
0
ARC
5
271
100
AcDbEntity
8
0
100
AcDbCircle
10
-2.996464904582183
20
3.3585797434622351
30
0
40
8.9131999999997209
100
AcDbArc
50
140.24352632078578
51
144.75647367921059
0
ARC
5
272
100
AcDbEntity
8
0
100
AcDbCircle
10
-10.357606272572422
20
8.5596730901017093
30
0
40
0.099999999999999326
100
AcDbArc
50
235.49655523280339
51
324.7564736792159
0
LINE
5
273
100
AcDbEntity
8
0
100
AcDbLine
10
-10.414251851017644
20
8.4772638767660276
30
1.5407439555097806e-34
11
-10.700109630235659
21
8.6737537909569689
31
9.6296497219361793e-34
0
SPLINE
5
274
100
AcDbEntity
8
0
100
AcDbSpline
70
1064
71
3
72
10
73
6
74
0
42
0.000000001
43
0.0000000001
44
0.0000000001
40
-0.11573552724645868
40
-0.11573552724645868
40
-0.11573552724645868
40
-0.11573552724645868
40
-0.022339109386952345
40
-0.022339109386952345
40
0
40
0
40
0
40
0
10
-12.188882463288719
20
9.0086734972310154
30
0
10
-11.543544703711891
20
8.989136067894993
30
0
10
-11.12122402607633
20
8.8611834124436903
30
0
10
-10.861702382249103
20
8.757161994472229
30
0
10
-10.761474577942279
20
8.7159341833961346
30
0
10
-10.700109630235659
20
8.6737537909569689
30
0
0
ARC
5
275
100
AcDbEntity
8
0
100
AcDbCircle
10
-2.996464904582183
20
3.3585797434622351
30
0
40
10.789999999999687
100
AcDbArc
50
148.42315308194949
51
151.57684691804783
0
SPLINE
5
276
100
AcDbEntity
8
0
100
AcDbSpline
70
1064
71
3
72
16
73
12
74
0
42
0.000000001
43
0.0000000001
44
0.0000000001
40
-0.26143439413394531
40
-0.26143439413394531
40
-0.26143439413394531
40
-0.26143439413394531
40
-0.25940044848031407
40
-0.25940044848031407
40
-0.25561558215201335
40
-0.25561558215201335
40
-0.24199493169443737
40
-0.24199493169443737
40
-0.19345101819058055
40
-0.19345101819058055
40
0
40
0
40
0
40
0
10
-11.451363018074876
20
7.372544753861197
30
0
10
-11.453059308614735
20
7.3733537177611419
30
0
10
-11.454749130079945
20
7.3741733255700739
30
0
10
-11.459571007777182
20
7.3765513504942559
30
0
10
-11.462682036751522
20
7.3781333082018632
30
0
10
-11.476929241534199
20
7.3855917970116236
30
0
10
-11.48765073681666
20
7.391810401902287
30
0
10
-11.53638312709267
20
7.4220348354270884
30
0
10
-11.595391570820166
20
7.4640638539958193
30
0
10
-11.82297137780975
20
7.6412293201652943
30
0
10
-12.146628670123006
20
7.9459674158279352
30
0
10
-12.485798408462752
20
8.4943999946122517
30
0
0
LINE
5
277
100
AcDbEntity
8
0
100
AcDbLine
10
-11.451363018074876
20
7.372544753861197
30
0
11
-11.138268871189087
21
7.223229612284463
31
0
0
ARC
5
278
100
AcDbEntity
8
0
100
AcDbCircle
10
-11.181314554221069
20
7.1329684956709949
30
0
40
0.10000000000000056
100
AcDbArc
50
-24.756473679224662
51
64.503444767196001
0
ARC
5
279
100
AcDbEntity
8
0
100
AcDbCircle
10
-2.996464904582183
20
3.3585797434622351
30
0
40
8.9131999999996552
100
AcDbArc
50
155.24352632078649
51
159.75647367921113
0
ARC
5
280
100
AcDbEntity
8
0
100
AcDbCircle
10
-11.452923476355073
20
6.4772465521935461
30
0
40
0.099999999999999784
100
AcDbArc
50
250.4965552328033
51
339.75647367921761
0
LINE
5
281
100
AcDbEntity
8
0
100
AcDbLine
10
-11.486309829617205
20
6.3829844101859727
30
-3.851859888774473e-35
11
-11.813282573172701
21
6.4987936554559926
31
0
0
SPLINE
5
282
100
AcDbEntity
8
0
100
AcDbSpline
70
1064
71
3
72
10
73
6
74
0
42
0.000000001
43
0.0000000001
44
0.0000000001
40
-0.11573552725425131
40
-0.11573552725425131
40
-0.11573552725425131
40
-0.11573552725425131
40
-0.022339109386692962
40
-0.022339109386692962
40
0
40
0
40
0
40
0
10
-13.338010300660061
20
6.4369784864538726
30
0
10
-12.709605233135404
20
6.5851324815965953
30
0
10
-12.268558199555082
20
6.5708443416480584
30
0
10
-11.990956817271991
20
6.5375365115838697
30
0
10
-11.883473649883742
20
6.5236543687075059
30
0
10
-11.813282573172701
20
6.4987936554559926
30
0
0
ARC
5
283
100
AcDbEntity
8
0
100
AcDbCircle
10
-2.996464904582183
20
3.3585797434622351
30
0
40
10.789999999999631
100
AcDbArc
50
163.42315308195001
51
166.5768469180484
0
SPLINE
5
284
100
AcDbEntity
8
0
100
AcDbSpline
70
1064
71
3
72
16
73
12
74
0
42
0.000000001
43
0.0000000001
44
0.0000000001
40
-0.26143439413161434
40
-0.26143439413161434
40
-0.26143439413161434
40
-0.26143439413161434
40
-0.25940044847931304
40
-0.25940044847931304
40
-0.25561558215149771
40
-0.25561558215149771
40
-0.24199493169409828
40
-0.24199493169409828
40
-0.19345101818923022
40
-0.19345101818923022
40
0
40
0
40
0
40
0
10
-12.202159942113859
20
5.0474835566538765
30
0
10
-12.204007808218725
20
5.0478259234795173
30
0
10
-12.20585218052377
20
5.0481802458514826
30
0
10
-12.211125234861331
20
5.049229247759774
30
0
10
-12.21453969887693
20
5.049952108017135
30
0
10
-12.230231840880068
20
5.0534690070460968
30
0
10
-12.242197503449226
20
5.0567007909422088
30
0
10
-12.297092036821732
20
5.0732824811530097
30
0
10
-12.364967727042158
20
5.0986068865847667
30
0
10
-12.630646736931086
20
5.2108335975540978
30
0
10
-13.022147697372548
20
5.4214193230743408
30
0
10
-13.49170530347137
20
5.8633809270926189
30
0
0
LINE
5
285
100
AcDbEntity
8
0
100
AcDbLine
10
-12.202159942113859
20
5.0474835566538765
30
0
11
-11.861088617214694
21
4.9842909332730692
31
0
0
ARC
5
286
100
AcDbEntity
8
0
100
AcDbCircle
10
-11.879306258153754
20
4.885964347048307
30
0
40
0.099999999999998965
100
AcDbArc
50
-9.7564736792193365
51
79.503444767195944
0
ARC
5
287
100
AcDbEntity
8
0
100
AcDbCircle
10
-2.996464904582183
20
3.3585797434622351
30
0
40
8.9131999999996125
100
AcDbArc
50
170.24352632078705
51
174.75647367921184
0
ARC
5
288
100
AcDbEntity
8
0
100
AcDbCircle
10
-11.971947003429923
20
4.18228802511093
30
0
40
0.10000000000000031
100
AcDbArc
50
265.49655523280251
51
354.75647367921556
0
LINE
5
289
100
AcDbEntity
8
0
100
AcDbLine
10
-11.97979890670771
20
4.0825967636337257
30
1.5407439555097939e-34
11
-12.325603962475384
21
4.1098331313014986
31
0
0
SPLINE
5
290
100
AcDbEntity
8
0
100
AcDbSpline
70
1064
71
3
72
10
73
6
74
0
42
0.000000001
43
0.0000000001
44
0.0000000001
40
-0.11573552720676673
40
-0.11573552720676673
40
-0.11573552720676673
40
-0.11573552720676673
40
-0.02233910938812346
40
-0.02233910938812346
40
0
40
0
40
0
40
0
10
-13.782378909500485
20
3.6554956886363139
30
0
10
-13.213731300995708
20
3.9612446583068888
30
0
10
-12.784014537908835
20
4.0615947470078781
30
0
10
-12.507251492551049
20
4.1012703784228641
30
0
10
-12.399837762314693
20
4.1156799488424127
30
0
10
-12.325603962475384
20
4.1098331313014986
30
0
0
ARC
5
291
100
AcDbEntity
8
0
100
AcDbCircle
10
-2.996464904582183
20
3.3585797434622351
30
0
40
10.789999999999601
100
AcDbArc
50
178.42315308195049
51
181.57684691804883
0
SPLINE
5
292
100
AcDbEntity
8
0
100
AcDbSpline
70
1064
71
3
72
16
73
12
74
0
42
0.000000001
43
0.0000000001
44
0.0000000001
40
-0.26143439401891666
40
-0.26143439401891666
40
-0.26143439401891666
40
-0.26143439401891666
40
-0.25940044837040627
40
-0.25940044837040627
40
-0.25561558205032026
40
-0.25561558205032026
40
-0.24199493162123059
40
-0.24199493162123059
40
-0.19345101820732483
40
-0.19345101820732483
40
0
40
0
40
0
40
0
10
-12.325603962475384
20
2.6073263556230653
30
0
10
-12.327477475124748
20
2.6071787936412569
30
0
10
-12.329350707345698
20
2.6070436840923472
30
0
10
-12.334715588386594
20
2.6066921752389458
30
0
10
-12.338200797363921
20
2.6065066763142744
30
0
10
-12.354268483043144
20
2.605842314705975
30
0
10
-12.366662872769389
20
2.605867036876091
30
0
10
-12.423978577511134
20
2.6076759689858053
30
0
10
-12.496095898084029
20
2.6145699449010511
30
0
10
-12.781768525412874
20
2.6542098357655552
30
0
10
-13.214433010461983
20
2.7562921219415419
30
0
10
-13.782378909500485
20
3.0616637982882495
30
0
0
ENDSEC
0
SECTION
2
OBJECTS
0
DICTIONARY
5
C
100
AcDbDictionary
3
ACAD_GROUP
350
D
3
ACAD_MLINESTYLE
350
17
0
DICTIONARY
5
D
100
AcDbDictionary
0
DICTIONARY
5
1A
330
C
100
AcDbDictionary
0
DICTIONARY
5
17
100
AcDbDictionary
0
ENDSEC
0
EOF
